<?xml version="1.0" standalone="no"?>
<!DOCTYPE svg PUBLIC "-//W3C//DTD SVG 1.1//EN" "http://www.w3.org/Graphics/SVG/1.1/DTD/svg11.dtd" >
<svg xmlns="http://www.w3.org/2000/svg">
<metadata>Generated by IcoMoon</metadata>
<defs>
<font id="icomoon" horiz-adv-x="1024">
<font-face units-per-em="1024" ascent="960" descent="-64" />
<missing-glyph horiz-adv-x="1024" />
<glyph unicode="&#x20;" horiz-adv-x="512" d="" />
<glyph unicode="&#xe600;" glyph-name="add-user" d="M414.897 400.331c121.821 0 220.69 98.869 220.69 220.69v61.793c0 111.228-84.745 206.566-197.738 206.566h-37.076c-109.462 0-206.566-95.338-206.566-206.566v-61.793c0-121.821 98.869-220.69 220.69-220.69zM624.993 71.945c-3.531 8.828-12.359 14.124-21.186 15.89-67.090 7.062-105.931 44.138-109.462 105.931-1.766 24.717 7.062 45.903 28.248 63.559 8.828 7.062 12.359 19.421 7.062 31.779l-10.593 22.952c-5.297 12.359-19.421 19.421-33.545 14.124-30.014-10.593-104.166-22.952-167.724 5.297l-1.766 1.766c-3.531 1.766-5.297 1.766-8.828 1.766-139.476 0-236.579-90.041-236.579-215.393v-67.090c0-15.89 8.828-10.593 22.952-10.593h512c8.828 0 17.655-3.531 22.952 3.531s5.297 12.359 1.766 21.186l-5.297 5.297zM912.772 236.138h-118.29v114.759c0 19.421-15.89 35.31-35.31 35.31s-35.31-15.89-35.31-35.31v-114.759h-109.462c-19.421 0-35.31-15.89-35.31-35.31s15.89-35.31 35.31-35.31h109.462v-120.055c0-19.421 15.89-35.31 35.31-35.31s35.31 15.89 35.31 35.31v120.055h118.29c19.421 0 35.31 15.89 35.31 35.31s-15.89 35.31-35.31 35.31z" />
<glyph unicode="&#xe601;" glyph-name="align-center" d="M766.8 734h-177.2v148.6c0 42.8-34.6 77.4-77.4 77.4s-77.4-34.6-77.4-77.4v-148.4h-177.6c-54.6 0-99.4-44.8-99.4-99.4v-373.6c0-54.6 44.8-99.4 99.4-99.4h177.6v-148.4c0-42.8 34.6-77.4 77.4-77.4s77.4 34.6 77.4 77.4v148.4h177.6c54.6 0 99.4 44.8 99.2 99.8v373c-0.2 54.8-45 99.4-99.6 99.4z" />
<glyph unicode="&#xe602;" glyph-name="align-left" d="M342.8 960c56.2 0 101.4-45.2 101.4-101.4v-140.4h244c51.6 0 94-42.4 94-94v-352.8c0-51.6-42.4-94-94-94h-243.6v-140c0-56.2-45.2-101.4-101.4-101.4s-101.4 45.2-101.4 101.4v821c-0.2 56.4 45.2 101.6 101 101.6z" />
<glyph unicode="&#xe603;" glyph-name="align-right" d="M680.8 960c-56.2 0-101.4-45.2-101.4-101.4v-140.2h-244c-51.6 0-94-42.4-94-94v-353c0-51.6 42.4-94 94-94h244.2v-140c0-56.2 45.2-101.4 101.4-101.4s101.4 45.2 101.4 101.4v821.4c-0.2 56-45.4 101.2-101.6 101.2z" />
<glyph unicode="&#xe604;" glyph-name="assist" d="M512 889.379c-243.641 0-441.379-197.738-441.379-441.379s197.738-441.379 441.379-441.379 441.379 197.738 441.379 441.379-197.738 441.379-441.379 441.379zM880.993 465.655h-121.821c-12.359 123.586-100.634 211.862-211.862 227.752v123.586c180.083-17.655 321.324-157.131 333.683-351.338zM512 269.683c-98.869 0-178.317 79.448-178.317 178.317s79.448 178.317 178.317 178.317 178.317-79.448 178.317-178.317-79.448-178.317-178.317-178.317zM476.69 816.993v-123.586c-111.228-15.89-201.269-104.166-211.862-227.752h-121.821c12.359 194.207 153.6 333.683 333.683 351.338zM144.772 395.034h123.586c17.655-88.276 102.4-178.317 208.331-192.441v-123.586c-173.021 15.89-312.497 157.131-331.917 316.028zM547.31 79.007v123.586c105.931 14.124 190.676 104.166 210.097 192.441h123.586c-21.186-158.897-160.662-300.138-333.683-316.028z" />
<glyph unicode="&#xe605;" glyph-name="button" d="M743 960h-462.6c-117.4 0-213.4-96.2-213.4-213.4v-463c0-117.4 96.2-213.6 213.4-213.6h135l-11.6 120h-123.4c-24.8 0-48.4 10-66 27.6s-27.6 41.4-27.6 66v462.6c0 24.8 10 48.4 27.6 66s41.4 27.6 66 27.6h463c24.8 0 48.4-10 66-27.6s27.6-41.4 27.6-66v-271.4l120-97.8v369.2c-0.6 117.6-96.6 213.8-214 213.8zM900.2 262.4l-314.4 256.2c-29.8 24.2-73.8 0.6-69.8-37.6l39.2-403.6c3-30.6 36-48.4 63-33.6l59.6 32.2 63-117.4c11-21 37.2-28.6 58-17.6l79.6 43c21 11 28.6 37.2 17.6 58l-63 117.4 59.6 32.2c28 14.2 31.6 51.6 7.6 70.8z" />
<glyph unicode="&#xe606;" glyph-name="call-history" d="M549.076 264.386c-14.124 28.248-44.138 45.903-75.917 45.903l-100.634-1.766-116.524 231.283 67.090 67.090c19.421 24.717 22.952 60.028 1.766 100.634l-45.903 93.572c-19.421 37.076-61.793 47.669-95.338 21.186-49.434-40.607-86.51-95.338-105.931-158.897-12.359-42.372-7.062-86.51 12.359-125.352l56.497-112.993 74.152-146.538 58.262-116.524c19.421-38.841 51.2-68.855 91.807-82.979 63.559-22.952 132.414-24.717 195.972-8.828 37.076 8.828 54.731 51.2 37.076 84.745-15.89 35.31-35.31 72.386-54.731 109.462zM911.007 536.276h-425.49c-22.952 0-42.372-21.186-42.372-44.138s19.421-44.138 42.372-44.138h425.49c22.952 0 42.372 21.186 42.372 44.138s-19.421 44.138-42.372 44.138zM911.007 359.724h-206.566c-22.952 0-42.372-21.186-42.372-44.138s19.421-44.138 42.372-44.138h206.566c22.952 0 42.372 21.186 42.372 44.138s-19.421 44.138-42.372 44.138zM911.007 712.828h-425.49c-22.952 0-42.372-21.186-42.372-44.138s19.421-44.138 42.372-44.138h425.49c22.952 0 42.372 21.186 42.372 44.138s-19.421 44.138-42.372 44.138z" />
<glyph unicode="&#xe607;" glyph-name="callback" d="M949.848 161.986c-17.655 35.31-37.076 70.621-54.731 107.697-14.124 28.248-42.372 44.138-72.386 44.138l-98.869-1.766-114.759 224.221 65.324 65.324c19.421 24.717 21.186 58.262 1.766 97.103l-45.903 91.807c-17.655 37.076-60.028 45.903-91.807 21.186-47.669-40.607-84.745-93.572-102.4-155.366-12.359-40.607-7.062-84.745 12.359-121.821l56.497-109.462 72.386-143.007 56.497-112.993c19.421-37.076 49.434-67.090 90.041-81.214 61.793-22.952 128.883-24.717 190.676-8.828 33.545 10.593 51.2 51.2 35.31 82.979zM386.648 395.034c0 0 0 0 0 0l-173.021 1.766 52.966 52.966c15.89 15.89 15.89 42.372 0 58.262s-42.372 15.89-58.262 0l-123.586-121.821c0 0 0 0 0 0-1.766-1.766-3.531-3.531-5.297-7.062 0-1.766-1.766-1.766-1.766-3.531s-1.766-1.766-1.766-3.531c0-1.766-1.766-3.531-1.766-5.297s-1.766-1.766-1.766-3.531c0-3.531-1.766-5.297-1.766-8.828 0 0 0 0 0 0s1.766-1.766 1.766-1.766c0-1.766 0-3.531 1.766-5.297 0-1.766 1.766-1.766 1.766-3.531s0-1.766 1.766-3.531c0-1.766 1.766-3.531 1.766-3.531 0-1.766 1.766-1.766 1.766-3.531 1.766-1.766 1.766-3.531 3.531-5.297 0 0 0-1.766 1.766-1.766v0c0 0 0 0 0 0l121.821-123.586c8.828-8.828 19.421-12.359 30.014-12.359s21.186 3.531 28.248 12.359c15.89 15.89 15.89 42.372 0 58.262l-52.966 54.731h174.786c22.952 0 40.607 17.655 40.607 40.607 0 21.186-19.421 38.841-42.372 38.841z" />
<glyph unicode="&#xe608;" glyph-name="consultant" d="M738.6 429.8c-1.4 14-16.8 21.8-28.4 14l-0.2-0.2c-13.8-9-29.2-19-46.6-30.2-17.4-11-39.8-21-67.8-30.2-27.8-8.8-55.6-13.4-83.6-13.4-28.2 0-55.6 4.4-83.6 13.4-27.8 9-50.4 19-67.8 30.2-17.4 11-33 21-46.6 30.2l-0.2 0.2c-11.6 7.4-27 0-28.4-14l-45-473.6c-0.8-10.8 7.8-20.2 18.4-20.2h506.2c10.8 0 19.2 9.4 18.4 20.2l-44.8 473.6zM794 746.8c-39.6 118.8-152 208.6-281.4 213-76.6 2.4-149.6-25.8-206-80.2-37.8-36.6-65.4-83-79.8-133.2-28.4-15-48-45.2-48-79.8 0-31.2 15.6-58.4 39.4-74.6l39.4-101c3.8-10 13.8-16.2 24-16.2 3 0 6.4 0.6 9.4 1.6 13.2 5.4 19.6 20.2 14.6 33.2l-38 98v78.4c5.6 59.2 32.2 115.2 75.2 156.4 46 44.6 106 68.2 168.8 66 131.8-4.6 242.6-115 247-247v-85.4c47.8 0 86.8 40.2 86.8 89.6-0.8 36-21.4 67.2-51.4 81.2zM511.8 445.6c117.8 0 213 95.2 213 213s-95.6 213-213 213c-117.8 0-213-95.2-213-213s95.4-213 213-213zM511.8 786.4c70.4 0 127.8-57.2 127.8-127.8s-57.2-127.8-127.8-127.8c-70.4 0-127.8 57.2-127.8 127.8 0.2 70.6 57.4 127.8 127.8 127.8z" />
<glyph unicode="&#xe609;" glyph-name="contact" d="M882.759 848.772c0 22.952-17.655 40.607-40.607 40.607h-660.303c-22.952 0-40.607-17.655-40.607-40.607v-803.31c0-21.186 17.655-38.841 40.607-38.841h662.069c21.186 0 40.607 17.655 40.607 40.607v801.545zM429.021 801.103h167.724c14.124 0 26.483-12.359 26.483-26.483s-12.359-26.483-28.248-26.483h-167.724c-14.124 0-26.483 12.359-26.483 26.483s12.359 26.483 28.248 26.483zM370.759 488.607c0 72.386 60.028 118.29 130.648 118.29h22.952c72.386 0 128.883-47.669 128.883-118.29v-40.607c0-77.683-63.559-141.241-141.241-141.241s-141.241 63.559-141.241 141.241v40.607zM711.503 130.207h-399.007c-14.124 0-24.717 8.828-22.952 22.952 10.593 70.621 67.090 112.993 146.538 112.993 1.766 0 0 0 1.766-1.766l1.766-1.766c42.372-19.421 91.807-19.421 132.414 0 1.766 0 3.531 1.766 5.297 1.766 79.448 1.766 143.007-38.841 157.131-109.462 1.766-14.124-8.828-24.717-22.952-24.717z" />
<glyph unicode="&#xe60a;" glyph-name="customer" d="M809-41.8l-49 518.2c-1.6 15.4-18.4 23.6-31 15.4l-0.4-0.4c-15-10-32.2-21-51-33s-43.6-23-74-33c-30.4-9.8-61-14.8-91.4-14.8-30.8 0-61 4.8-91.4 14.8s-55.2 21-74 33c-19 12.2-36 23-51 33l-0.4 0.4c-12.8 8-29.6 0-31-15.4l-49.4-518.2c-1-11.8 8.4-22.2 20.2-22.2h554c11.4 0 20.6 10.4 19.8 22.2zM511.8 493.8c129 0 233.2 104.2 233.2 233.2s-104.6 233-233.2 233c-129 0-233.2-104.2-233.2-233.2s104.2-233 233.2-233zM511.8 866.8c77.2 0 139.8-62.6 139.8-139.8s-62.6-139.8-139.8-139.8-139.8 62.6-139.8 139.8 62.6 139.8 139.8 139.8z" />
<glyph unicode="&#xe60b;" glyph-name="dialpad" d="M269.6 799.8c0-74.448-60.352-134.8-134.8-134.8s-134.8 60.352-134.8 134.8c0 74.448 60.352 134.8 134.8 134.8s134.8-60.352 134.8-134.8zM646.8 799.8c0-74.448-60.352-134.8-134.8-134.8s-134.8 60.352-134.8 134.8c0 74.448 60.352 134.8 134.8 134.8s134.8-60.352 134.8-134.8zM1024 799.8c0-74.448-60.352-134.8-134.8-134.8s-134.8 60.352-134.8 134.8c0 74.448 60.352 134.8 134.8 134.8s134.8-60.352 134.8-134.8zM269.6 454.6c0-74.448-60.352-134.8-134.8-134.8s-134.8 60.352-134.8 134.8c0 74.448 60.352 134.8 134.8 134.8s134.8-60.352 134.8-134.8zM646.8 454.6c0-74.448-60.352-134.8-134.8-134.8s-134.8 60.352-134.8 134.8c0 74.448 60.352 134.8 134.8 134.8s134.8-60.352 134.8-134.8zM1024 454.6c0-74.448-60.352-134.8-134.8-134.8s-134.8 60.352-134.8 134.8c0 74.448 60.352 134.8 134.8 134.8s134.8-60.352 134.8-134.8zM269.6 96.2c0-74.448-60.352-134.8-134.8-134.8s-134.8 60.352-134.8 134.8c0 74.448 60.352 134.8 134.8 134.8s134.8-60.352 134.8-134.8zM646.8 96.2c0-74.448-60.352-134.8-134.8-134.8s-134.8 60.352-134.8 134.8c0 74.448 60.352 134.8 134.8 134.8s134.8-60.352 134.8-134.8zM1024 96.2c0-74.448-60.352-134.8-134.8-134.8s-134.8 60.352-134.8 134.8c0 74.448 60.352 134.8 134.8 134.8s134.8-60.352 134.8-134.8z" />
<glyph unicode="&#xe60c;" glyph-name="diamond" d="M1001.6 502.2l-435.4 435.4c-29.8 29.8-78.8 29.8-108.6 0l-435.2-435.4c-29.8-29.8-29.8-78.8 0-108.6l435.4-435.4c29.8-29.8 78.8-29.8 108.6 0l435.4 435.4c29.6 30 29.6 78.8-0.2 108.6z" />
<glyph unicode="&#xe60d;" glyph-name="directory" d="M308.966 421.517c82.979 0 150.069 67.090 150.069 148.303v42.372c0 75.917-65.324 135.945-141.241 135.945h-24.717c-75.917 0-134.179-60.028-134.179-135.945v-42.372c0-81.214 67.090-148.303 150.069-148.303zM376.055 377.379c-1.766 0-1.766 0-3.531-1.766-44.138-19.421-93.572-21.186-137.71 0v0c-1.766 1.766-1.766 1.766-5.297 1.766-93.572 0-158.897-61.793-158.897-146.538v-45.903c0-10.593 3.531-37.076 14.124-37.076h439.614c10.593 0 5.297 26.483 5.297 37.076v45.903c0 84.745-61.793 146.538-153.6 146.538zM911.007 483.31h-301.903c-22.952 0-42.372-21.186-42.372-44.138s19.421-44.138 42.372-44.138h301.903c22.952 0 42.372 21.186 42.372 44.138s-19.421 44.138-42.372 44.138zM911.007 306.759h-224.221c-22.952 0-42.372-21.186-42.372-44.138s19.421-44.138 42.372-44.138h224.221c22.952 0 42.372 21.186 42.372 44.138s-19.421 44.138-42.372 44.138zM911.007 659.862h-301.903c-22.952 0-42.372-21.186-42.372-44.138s19.421-44.138 42.372-44.138h301.903c22.952 0 42.372 21.186 42.372 44.138s-19.421 44.138-42.372 44.138z" />
<glyph unicode="&#xe60e;" glyph-name="feedback" d="M989.8 857h-955.6c-18.8 0-34.2-15.4-34.2-34v-545c0-18.8 15.4-34.2 34.2-34.2h353.4v-160.4c0-32.4 18-44.4 29.2-44.4 11.4 0 21 4.4 29.2 12.2l192.4 192.4h351.2c18.8 0 34.2 15.4 34.2 34.2v545.2c0.2 18.8-15.2 34-34 34zM903.2 360.2h-782.4c-10.2 0-18.4 8.2-18.4 18.8v39.6c0 10.2 8.2 18.8 18.4 18.8h782c10.2 0 18.4-8.2 18.4-18.8v-39.6h0.2c0.2-10.2-8-18.8-18.2-18.8zM903.2 513.8h-782.4c-10.2 0-18.4 8.2-18.4 18.8v39.6c0 10.2 8.2 18.8 18.4 18.8h782c10.2 0 18.4-8.2 18.4-18.8v-39.6h0.2c0.2-10.2-8-18.8-18.2-18.8zM903.2 667.4h-475.2c-10.2 0-18.4 8.2-18.4 18.8v39.6c0 10.2 8.2 18.8 18.4 18.8h474.8c10.2 0 18.4-8.2 18.4-18.8v-39.6h0.2c0.2-10.2-8-18.8-18.2-18.8z" />
<glyph unicode="&#xe60f;" glyph-name="hangup" d="M655.007 617.49l30.014-93.572c14.124-30.014 44.138-47.669 91.807-47.669h109.462c44.138 0 74.152 35.31 63.559 77.683-14.124 65.324-47.669 125.352-97.103 173.021-33.545 31.779-77.683 47.669-121.821 47.669h-437.848c-44.138 0-88.276-15.89-120.055-45.903-51.2-47.669-84.745-111.228-100.634-178.317-8.828-38.841 21.186-74.152 60.028-74.152 42.372 0 86.51 1.766 128.883 1.766 33.545 0 63.559 19.421 77.683 47.669l45.903 93.572zM508.469 123.145c-24.717 0-44.138 19.421-44.138 44.138v293.076c0 24.717 19.421 44.138 44.138 44.138 0 0 0 0 0 0 24.717 0 44.138-19.421 44.138-44.138v-293.076c0-24.717-19.421-44.138-44.138-44.138 0 0 0 0 0 0zM508.469 123.145c-10.593 0-22.952 3.531-31.779 12.359l-130.648 132.414c-17.655 17.655-17.655 45.903 0 61.793 17.655 17.655 45.903 17.655 61.793 0l100.634-102.4 102.4 100.634c17.655 17.655 45.903 17.655 61.793 0 17.655-17.655 17.655-45.903 0-61.793l-132.414-130.648c-8.828-8.828-21.186-12.359-31.779-12.359z" />
<glyph unicode="&#xe610;" glyph-name="input" d="M890.2 883.2h-756.4c-73.6 0-133.8-60.2-133.8-133.8v-603c0-73.8 60.2-133.8 133.8-133.8h756.6c73.8 0 133.8 60.2 133.8 133.8v603c-0.2 73.6-60.4 133.8-134 133.8zM910.2 146.6c0-10.8-9.4-19.8-19.8-19.8h-756.6c-10.8 0-19.8 9.4-19.8 19.8v602.8c0 10.8 9.4 19.8 19.8 19.8h756.6c10.8 0 19.8-9.4 19.8-19.8v-602.8zM392.6 601.6c23.6 0 42.6 19 42.6 42.6s-19 42.6-42.6 42.6h-42.6c-12.2 0-23.8-2.8-34.2-8-10.2 5.2-22 8-34.2 8h-42.6c-23.6 0-42.6-19-42.6-42.6s19-42.6 42.6-42.6h34.2v-307.2h-34.2c-23.6 0-42.6-19-42.6-42.6s19-42.6 42.6-42.6h42.6c12.2 0 23.8 2.8 34.2 8 10.2-5.2 22-8 34.2-8h42.6c23.6 0 42.6 19 42.6 42.6s-19 42.6-42.6 42.6h-34.2v307.2h34.2z" />
<glyph unicode="&#xe611;" glyph-name="outbound-call" d="M619.697 239.669c-15.89 31.779-49.434 51.2-84.745 51.2l-114.759-1.766-132.414 261.297 77.683 75.917c21.186 28.248 24.717 67.090 1.766 112.993l-54.731 107.697c-21.186 42.372-70.621 54.731-107.697 24.717-56.497-45.903-98.869-107.697-121.821-180.083-14.124-47.669-8.828-98.869 14.124-143.007l65.324-128.883 84.745-165.959 67.090-130.648c21.186-44.138 58.262-77.683 104.166-95.338 70.621-26.483 150.069-28.248 222.455-8.828 40.607 10.593 61.793 58.262 42.372 95.338-21.186 42.372-42.372 82.979-63.559 125.352zM948.083 654.566c0 1.766 0 3.531 0 5.297s0 3.531 0 5.297c0 1.766 0 3.531 0 5.297s0 3.531 0 3.531-1.766 5.297-1.766 7.062c0 0 0 1.766 0 1.766s0 0 0 0c-1.766 3.531-3.531 5.297-5.297 8.828 0 1.766-1.766 1.766-1.766 3.531-1.766 1.766-1.766 3.531-3.531 3.531-1.766 1.766-3.531 3.531-5.297 3.531 0 0-1.766 1.766-1.766 1.766-3.531 1.766-5.297 3.531-8.828 3.531 0 0 0 0 0 0l-190.676 72.386c-24.717 8.828-52.966-3.531-61.793-28.248s3.531-52.966 28.248-61.793l81.214-30.014-271.89-120.055c-24.717-10.593-35.31-38.841-24.717-63.559 7.062-17.655 24.717-28.248 44.138-28.248 7.062 0 12.359 1.766 19.421 3.531l275.421 121.821-31.779-82.979c-8.828-24.717 3.531-52.966 28.248-61.793 5.297-1.766 10.593-3.531 17.655-3.531 19.421 0 37.076 12.359 44.138 31.779l72.386 190.676c0 1.766 0 1.766 0 3.531-3.531 0-3.531 1.766-1.766 3.531z" />
<glyph unicode="&#xe612;" glyph-name="pc-group" d="M344.276 407.393c91.807 0 167.724 74.152 167.724 167.724v45.903c0 84.745-75.917 146.538-160.662 146.538h-26.483c-84.745 0-148.303-61.793-148.303-146.538v-45.903c0-91.807 75.917-167.724 167.724-167.724zM420.193 357.959c-3.531 0-8.828 0-12.359-1.766-45.903-21.186-97.103-21.186-143.007 0-3.531 1.766-8.828 1.766-14.124 1.766-102.4 0-180.083-68.855-180.083-164.193v-49.434c0-14.124 15.89-14.124 31.779-14.124h469.628c14.124 0 28.248 0 28.248 15.89v49.434c0 93.572-75.917 162.428-180.083 162.428zM882.759 486.841v33.545c0 67.090-49.434 121.821-116.524 121.821h-19.421c-67.090 0-128.883-52.966-128.883-121.821v-33.545c0-72.386 60.028-132.414 132.414-132.414 72.386 1.766 132.414 60.028 132.414 132.414zM815.669 310.29c-3.531 0-7.062 0-10.593-1.766-31.779-14.124-67.090-14.124-100.634 0-10.593 5.297-24.717 1.766-31.779-8.828s-7.062-22.952 0-33.545c1.766-1.766 30.014-38.841 17.655-118.29-1.766-7.062 1.766-8.828 7.062-14.124s12.359-1.766 21.186-1.766h213.628c14.124 0 22.952-1.766 22.952 14.124v37.076c-1.766 72.386-58.262 127.117-139.476 127.117z" />
<glyph unicode="&#xe613;" glyph-name="pc-user" d="M520.828 407.393c125.352 0 220.69 100.634 220.69 225.986v63.559c0 114.759-93.572 192.441-208.331 192.441h-37.076c-114.759 0-195.972-77.683-195.972-192.441v-63.559c0-125.352 95.338-225.986 220.69-225.986zM626.759 340.303c-3.531 0-5.297 0-8.828-1.766-67.090-30.014-143.007-31.779-210.097 0h-1.766c-3.531 1.766-3.531 1.766-7.062 1.766-141.241 0-240.11-93.572-240.11-222.455v-68.855c0-14.124 5.297-42.372 21.186-42.372h665.6c14.124 0 19.421 28.248 19.421 42.372v68.855c0 128.883-97.103 222.455-238.345 222.455z" />
<glyph unicode="&#xe614;" glyph-name="phone-active-1" d="M586.152 216.717c-8.828 15.89-15.89 31.779-24.717 47.669-19.421 37.076-56.497 60.028-98.869 60.028h-52.966l-33.545 61.793-49.434 102.4 31.779 42.372c15.89 19.421 37.076 63.559 5.297 125.352l-42.372 82.979c-12.359 26.483-35.31 44.138-63.559 49.434-26.483 5.297-52.966-1.766-75.917-19.421-49.434-40.607-86.51-95.338-105.931-157.131-14.124-44.138-8.828-93.572 12.359-137.71l167.724-333.683c21.186-44.138 58.262-75.917 100.634-91.807 35.31-12.359 72.386-19.421 111.228-19.421 28.248 0 56.497 3.531 84.745 10.593 24.717 7.062 45.903 24.717 58.262 49.434 10.593 24.717 10.593 52.966-1.766 75.917-5.297 17.655-14.124 33.545-22.952 51.2zM549.076 119.614c-1.766-3.531-3.531-7.062-10.593-8.828-51.2-14.124-105.931-10.593-153.6 7.062-26.483 8.828-47.669 30.014-61.793 56.497l-169.49 331.917c-14.124 28.248-17.655 58.262-8.828 84.745 14.124 49.434 44.138 91.807 82.979 123.586 3.531 3.531 8.828 5.297 12.359 5.297 1.766 0 1.766 0 3.531 0 5.297-1.766 10.593-5.297 14.124-12.359l42.372-82.979c15.89-31.779 5.297-47.669 1.766-51.2l-44.138-60.028c-8.828-10.593-8.828-24.717-3.531-37.076l58.262-123.586c0 0 0-1.766 1.766-1.766l44.138-81.214c7.062-10.593 17.655-19.421 31.779-17.655l74.152 1.766c15.89 0 28.248-8.828 35.31-21.186 8.828-15.89 15.89-31.779 24.717-47.669s17.655-33.545 24.717-49.434c1.766-5.297 1.766-10.593 0-15.89zM531.421 635.145c-17.655 8.828-38.841 1.766-47.669-14.124-8.828-17.655-1.766-38.841 14.124-47.669 44.138-22.952 82.979-97.103 81.214-155.366 0-19.421 15.89-38.841 35.31-38.841 0 0 0 0 0 0 19.421 0 35.31 17.655 35.31 37.076 1.766 84.745-51.2 183.614-118.29 218.924z" />
<glyph unicode="&#xe615;" glyph-name="phone-active-2" d="M586.152 216.717c-8.828 15.89-15.89 31.779-24.717 47.669-19.421 37.076-56.497 60.028-98.869 60.028h-52.966l-33.545 61.793-49.434 102.4 31.779 42.372c15.89 19.421 37.076 63.559 5.297 125.352l-42.372 82.979c-12.359 26.483-35.31 44.138-63.559 49.434-26.483 5.297-52.966-1.766-75.917-19.421-49.434-40.607-86.51-95.338-105.931-157.131-14.124-44.138-8.828-93.572 12.359-137.71l167.724-333.683c21.186-44.138 58.262-75.917 100.634-91.807 35.31-12.359 72.386-19.421 111.228-19.421 28.248 0 56.497 3.531 84.745 10.593 24.717 7.062 45.903 24.717 58.262 49.434 10.593 24.717 10.593 52.966-1.766 75.917-5.297 17.655-14.124 33.545-22.952 51.2zM549.076 119.614c-1.766-3.531-3.531-7.062-10.593-8.828-51.2-14.124-105.931-10.593-153.6 7.062-26.483 8.828-47.669 30.014-61.793 56.497l-169.49 331.917c-14.124 28.248-17.655 58.262-8.828 84.745 14.124 49.434 44.138 91.807 82.979 123.586 3.531 3.531 8.828 5.297 12.359 5.297 1.766 0 1.766 0 3.531 0 5.297-1.766 10.593-5.297 14.124-12.359l42.372-82.979c15.89-31.779 5.297-47.669 1.766-51.2l-44.138-60.028c-8.828-10.593-8.828-24.717-3.531-37.076l58.262-123.586c0 0 0-1.766 1.766-1.766l44.138-81.214c7.062-10.593 17.655-19.421 31.779-17.655l74.152 1.766c15.89 0 28.248-8.828 35.31-21.186 8.828-15.89 15.89-31.779 24.717-47.669s17.655-33.545 24.717-49.434c1.766-5.297 1.766-10.593 0-15.89zM624.993 746.372c-17.655 8.828-38.841 1.766-47.669-14.124-8.828-17.655-1.766-38.841 14.124-47.669 86.51-45.903 137.71-139.476 135.945-250.703 0-19.421 15.89-37.076 35.31-37.076 0 0 0 0 0 0 19.421 0 35.31 15.89 35.31 35.31 1.766 137.71-63.559 256-173.021 314.262zM531.421 635.145c-17.655 8.828-38.841 1.766-47.669-14.124-8.828-17.655-1.766-38.841 14.124-47.669 44.138-22.952 82.979-97.103 81.214-155.366 0-19.421 15.89-38.841 35.31-38.841 0 0 0 0 0 0 19.421 0 35.31 17.655 35.31 37.076 1.766 84.745-51.2 183.614-118.29 218.924z" />
<glyph unicode="&#xe616;" glyph-name="phone-active-3" d="M586.152 216.717c-8.828 15.89-15.89 31.779-24.717 47.669-19.421 37.076-56.497 60.028-98.869 60.028h-52.966l-33.545 61.793-49.434 102.4 31.779 42.372c15.89 19.421 37.076 63.559 5.297 125.352l-42.372 82.979c-12.359 26.483-35.31 44.138-63.559 49.434-26.483 5.297-52.966-1.766-75.917-19.421-49.434-40.607-86.51-95.338-105.931-157.131-14.124-44.138-8.828-93.572 12.359-137.71l167.724-333.683c21.186-44.138 58.262-75.917 100.634-91.807 35.31-12.359 72.386-19.421 111.228-19.421 28.248 0 56.497 3.531 84.745 10.593 24.717 7.062 45.903 24.717 58.262 49.434 10.593 24.717 10.593 52.966-1.766 75.917-5.297 17.655-14.124 33.545-22.952 51.2zM549.076 119.614c-1.766-3.531-3.531-7.062-10.593-8.828-51.2-14.124-105.931-10.593-153.6 7.062-26.483 8.828-47.669 30.014-61.793 56.497l-169.49 331.917c-14.124 28.248-17.655 58.262-8.828 84.745 14.124 49.434 44.138 91.807 82.979 123.586 3.531 3.531 8.828 5.297 12.359 5.297 1.766 0 1.766 0 3.531 0 5.297-1.766 10.593-5.297 14.124-12.359l42.372-82.979c15.89-31.779 5.297-47.669 1.766-51.2l-44.138-60.028c-8.828-10.593-8.828-24.717-3.531-37.076l58.262-123.586c0 0 0-1.766 1.766-1.766l44.138-81.214c7.062-10.593 17.655-19.421 31.779-17.655l74.152 1.766c15.89 0 28.248-8.828 35.31-21.186 8.828-15.89 15.89-31.779 24.717-47.669s17.655-33.545 24.717-49.434c1.766-5.297 1.766-10.593 0-15.89zM734.455 861.131c-17.655 8.828-38.841 3.531-47.669-14.124s-3.531-38.841 14.124-47.669c118.29-67.090 187.145-197.738 181.848-351.338 0-19.421 14.124-35.31 33.545-35.31 0 0 0 0 1.766 0 19.421 0 35.31 14.124 35.31 33.545 5.297 180.083-75.917 333.683-218.924 414.897zM624.993 746.372c-17.655 8.828-38.841 1.766-47.669-14.124-8.828-17.655-1.766-38.841 14.124-47.669 86.51-45.903 137.71-139.476 135.945-250.703 0-19.421 15.89-37.076 35.31-37.076 0 0 0 0 0 0 19.421 0 35.31 15.89 35.31 35.31 1.766 137.71-63.559 256-173.021 314.262zM531.421 635.145c-17.655 8.828-38.841 1.766-47.669-14.124-8.828-17.655-1.766-38.841 14.124-47.669 44.138-22.952 82.979-97.103 81.214-155.366 0-19.421 15.89-38.841 35.31-38.841 0 0 0 0 0 0 19.421 0 35.31 17.655 35.31 37.076 1.766 84.745-51.2 183.614-118.29 218.924z" />
<glyph unicode="&#xe617;" glyph-name="phone-picker" d="M655.007 239.669c-15.89 31.779-49.434 51.2-84.745 51.2l-114.759-1.766-132.414 261.297 77.683 75.917c21.186 28.248 24.717 67.090 1.766 112.993l-54.731 107.697c-21.186 42.372-70.621 54.731-107.697 24.717-56.497-45.903-98.869-107.697-120.055-180.083-14.124-47.669-8.828-98.869 14.124-143.007l65.324-128.883 82.979-165.959 67.090-130.648c21.186-44.138 58.262-77.683 104.166-95.338 70.621-26.483 150.069-28.248 222.455-8.828 40.607 10.593 61.793 58.262 42.372 95.338-19.421 42.372-42.372 82.979-63.559 125.352zM893.352 721.655c-21.186 15.89-51.2 14.124-67.090-7.062l-148.303-185.379-54.731 54.731c-19.421 19.421-49.434 19.421-67.090 0-19.421-19.421-19.421-49.434 0-67.090l91.807-91.807c8.828-8.828 21.186-14.124 33.545-14.124 0 0 1.766 0 1.766 0 14.124 0 26.483 7.062 35.31 17.655l181.848 227.752c17.655 19.421 14.124 49.434-7.062 65.324z" />
<glyph unicode="&#xe618;" glyph-name="progress-pie" d="M955.4 705.2c-45.8 78.6-107.8 140.6-186.4 186.4s-164 68.4-257 68.4-178.6-22.8-257.2-68.6c-78.2-45.8-140.6-108-186.4-186.4-45.6-78.4-68.4-164-68.4-257s22.8-178.6 68.6-257.2c45.8-78.6 107.8-140.6 186.4-186.4s164-68.4 257-68.4 178.6 23 257.2 68.6c78.6 45.8 140.6 107.8 186.4 186.4 45.6 78.4 68.4 164 68.4 257s-23 178.6-68.6 257.2zM868.2 427.6c0-2.6 0.2-3.2-1.8-4-1.2-0.2-3.2 0-4.2 0-4.8 0-9.6 0-14.6 0-16.4 0-32.8 0-49.2 0-22.2 0-44.4 0-66.6 0-24.2 0-48.6 0-72.8 0-22.8 0-45.6 0-68.2 0-17.4 0-35 0-52.4 0-8.6 0-17 0-25.6 0h-0.8c0 5.6 0 11 0 16.8 0 14.8 0 29.2 0 44 0 20.8 0 41.6 0 62.2 0 23.8 0 47.6 0 71.4 0 23.6 0 47.6 0 71.2 0 20.8 0 41.2 0 62 0 14.6 0 29 0 43.6 0 4 0 8 0 12 0 0.6-0.2 2.6 0 3.2 1.2 2 7.2 0.8 9.4 0.8 5.4 0 11-0.2 16.4-0.8 43.2-3.2 86.2-13.6 125.4-31.8 28.2-13 54.8-29.6 78.8-49.4 16.2-13.4 31.2-27.8 45-43.8 13.6-16 25.8-33 36.4-51.2 10.8-18.8 18.8-38.2 25-58.6 13-42 20-86.2 20-130.2 0-6.2 0-11.8-0.2-17.4z" />
<glyph unicode="&#xe619;" glyph-name="sms" d="M931.2 908.8h-838.4c-51 0-92.8-41.8-92.8-92.8v-582.2c0-51.2 41.8-93 92.8-93h624v-126c0-24.4 29.6-36.6 47-19.4l124.6 145.6h43c51 0 92.8 41.8 92.8 92.8v582.2c-0.2 51-42 92.8-93 92.8zM295.2 287.8c-20.2-12.8-42.6-19-65.8-19-20.4 0-41.6 5.2-61.4 15.4-40.6 20.8-62.6 64.2-57.2 113.4 1.4 14 14.2 24.2 28.2 22.8s24.2-14.2 22.8-28.2c-1.2-10.6-2.2-46 29.6-62.2 25.8-13.4 53.8-12.8 76.6 1.4 20.2 12.6 32.4 33.6 31.8 54.6-1.2 48-42.6 82.2-87 118.4-48.6 39.8-103.8 84.8-103.6 155.6 0.2 51.2 24.4 93 64.8 111.8 47.6 22.2 110.4 12 142.8-23.6 33-35.8 33-69.4 33-104.6 0-14.2-11.4-26.2-25.6-26.2s-25.6 10.8-25.6 25c0 32.8 0 50-19.4 71.2-17.4 18.8-56.4 24.4-83 11.6-31.8-14.8-35.2-51-35.6-65.8-0.2-46.4 41-80.2 84.8-115.8 49-39.8 104.2-85.4 105.8-156.8 1-39-20.6-77-56-99zM631.4 295.8c0-14.2-11.4-25.6-25.6-25.6s-25.6 11.4-25.6 25.6v290.2l-43.8-143.6c-0.2-0.8-0.8-1.8-1.4-2.6-0.6-1.2-0.8-2-1.4-3.2-1.2-1.8-2.6-3.4-4-4.8-0.6-0.6-1.2-1.4-2-2-2.6-2-5.2-3.4-8-4.2 0 0 0 0-0.2 0-2.2-0.8-4.8-1.2-7.2-1.2h-0.4c-2.2 0-4.8 0.2-7.2 1.2 0 0 0 0-0.2 0-2.8 0.8-5.6 2.6-8 4.2-0.8 0.6-1.4 1.4-2 2-1.4 1.4-2.8 3.2-4 4.8-0.6 1.2-1.2 2-1.4 3.2-0.2 0.8-1.2 1.8-1.4 2.6l-43.8 143.6v-290.2c0-14.2-11.4-25.6-25.6-25.6s-25.6 11.4-25.6 25.6v461.6c0 0.6 0.2 0.8 0.2 1.4 0 1.8 0.6 3.4 1.2 5.4 0.2 1.4 0.6 3.2 1.4 4.2 0.8 1.4 1.8 2.8 2.8 4 0.8 1.4 1.8 2.6 3.2 3.6 1.2 1.2 2.6 1.8 4 2.6s2.8 2 4.6 2.6c0.6 0.2 0.8 0.6 1.2 0.6 1.4 0.2 2.6 0.2 3.6 0.2 1.2 0.2 2.2 0.8 3.6 0.8 0.6 0 0.8-0.2 1.2-0.2 2 0 3.6-0.6 5.4-1.2 1.4-0.2 2.8-0.6 4.2-1.4s2.8-1.8 4.2-2.8c1.4-0.8 2.6-1.8 3.6-3.2 1.2-1.2 1.8-2.6 2.6-4s2-2.8 2.6-4.6c0.2-0.6 0.6-0.8 0.6-1.2l69.4-227.6 69.4 227.6c0 0.6 0.6 0.8 0.6 1.2 0.6 1.8 1.8 3.2 2.6 4.8 0.8 1.4 1.4 2.6 2.6 3.6s2.6 2 3.6 3.2c1.4 0.8 2.6 2 4 2.8 1.4 0.6 2.8 0.8 4.2 1.4 1.8 0.6 3.4 0.8 5.4 1.2 0.6 0 0.8 0.2 1.4 0.2 1.4 0 2.6-0.6 3.6-0.8 1.2-0.2 2.6 0 3.6-0.2 0.6 0 0.8-0.6 1.2-0.6 1.8-0.6 3.2-1.8 4.6-2.6s2.6-1.4 3.6-2.6c1.2-1.2 2-2.6 3.2-3.6 0.8-1.4 2-2.6 2.6-4s0.8-2.8 1.4-4.6 0.8-3.4 1.2-5.2c0-0.6 0.2-0.8 0.2-1.4l0.2-461.2zM859.8 289.2c-20.2-12.8-42.6-19-65.8-19-20.4 0-41.6 5.2-61.4 15.4-40.6 20.8-62.6 64.2-57.2 113.4 1.4 14 14.2 24.2 28.2 22.8s24.2-14.2 22.8-28.2c-1.2-10.6-2.2-46 29.6-62.2 25.8-13.4 53.8-12.8 76.6 1.4 20.2 12.6 32.4 33.6 31.8 54.6-1.2 48-42.6 82.2-87 118.4-48.6 39.8-103.8 84.8-103.6 155.6 0.2 51.2 24.4 93 64.8 111.8 47.6 22.2 110.4 12 142.8-23.6 32.8-35.8 32.8-69.2 32.8-104.6 0-14.2-11.4-26.2-25.6-26.2s-25.6 10.8-25.6 25c0 32.8 0 50-19.4 71.2-17.4 18.8-56 24.4-83 11.6-31.8-14.8-35.2-51-35.6-65.8-0.2-46.4 41-80.2 84.8-115.8 49-39.8 104.2-85.4 105.8-156.8 1.2-39-20.2-76.8-55.8-99z" />
<glyph unicode="&#xe61a;" glyph-name="steal" d="M1024 469.4c-3 131.2-112.8 177.2-244 175.4-71.8-0.8-135.8-2-179.4-52.4-22-25.6-53.8-40.4-87.8-40.4h-1.4c-33.8 0-65.8 14.8-87.8 40.4-43.4 50.6-107.6 51.4-179.4 52.4-131.4 1.4-241.2-44-244.2-175.4-3.2-135.8 105.8-218.4 240.8-218.4 83.4 0 156.6 13.8 199.8 78.2 13.4 19.8 36.4 32 60.2 32h21.2c24.2 0 47-11.6 60.2-32 43.2-64.4 116.6-78.2 199.8-78.2 136 0 245 82.6 242 218.4zM372.8 441.4c-91.4-62.2-179.2-28.2-226-0.4-18.8 11.4-18.2 38.8 0.8 49.2 46.2 25.6 131.2 55.2 223.2-1.2 18.2-10.8 19-36 2-47.6zM888.4 438.4c-91.4-62.2-179.2-28.4-225.8-0.2-18.8 11.4-18.2 38.8 0.8 49.2 46.2 25.6 131.2 55.2 223.2-1.2 18-10.8 18.8-36 1.8-47.8z" />
<glyph unicode="&#xe61b;" glyph-name="text" d="M975.8 829.8c0 21.4 0.6 40.4 2 58.2 1.6 17.8 3.2 32.4 5.2 44.8 0 11-6.2 18.4-18.8 21.8s-28.4 5.2-47.4 5.2h-807.8c-17 0-32.6-2.2-46.8-6-14.4-4-21.4-11.6-21.4-22.6 4.8-38.4 6.8-76.8 6.6-115.6-0.2-38.6-2.8-76.6-6.6-114 0-4 2-7.6 6.6-10.6 4.6-3.2 9.6-5 15-5.2 5.8-0.8 11.4 0 16.8 2 5.6 2.2 8.8 6.2 9.8 12.4 8 40 17 72.8 26.6 98 9.8 25.2 22.4 45.2 37.8 59.8 15.8 14.8 35.6 24.8 59.8 30.4s54.8 8.2 92.2 8.2c44 0 75.8-5 94.2-14.4 18.4-9.2 27.8-32.6 27.8-70v-670.8c0-33.2-1.8-59.2-5.2-77.8-4-18.6-10.8-33-21.4-43s-25.2-17.4-43.8-21.8c-18.4-4.6-43.4-8-74.6-11-5.8-1-10.6-4.2-13.6-9.8s-4.6-11.4-4.6-17.4c0-6.2 1.6-12 4.6-16.8 3-5.2 7.6-7.8 13.6-7.8 33.2 0 70.4 2.2 111 6 40.6 4 80.2 6 118.6 6 36.2 0 72.8-2.2 109.6-6 36.6-4 75.4-6 115.6-6 6.8 0 12 3 15.6 7.8 3.6 5.2 5.2 10.8 5.2 16.8 0 6.2-1.8 11.8-5.2 17.4-3.6 5.6-8.2 8.8-14.4 9.8-32.4 2.8-57.8 6.6-77.2 11-19.4 4.6-34.2 11.8-44.8 21.8-10.6 9.8-17.4 24.4-20.4 43-3 18.8-4.6 44.8-4.6 77.8h-0.6v670.6c0 37 10 60.6 30.4 70 19.8 9.6 52.6 14.4 98 14.4 33.4 0 62-2.8 86.2-8.2 24.2-5.6 44.2-15.8 61-30.4s30.2-34.4 40.2-60.2c10-25.4 18-58.6 24.2-98.8 1-6.2 4.2-10.4 9.8-12.4 5.6-1.8 11.4-2.2 17.4-2 6.2 0.6 12 2.6 16.8 6 5.2 3.2 7.8 6.8 7.8 11-2.2 20.4-4 41.8-5.2 63.6-0.8 22-1.6 43.6-1.6 64.8z" />
<glyph unicode="&#xe61c;" glyph-name="triangle" d="M575.8 884.6l438.4-803.6c13.4-23.8 13-48-1.2-72-6.6-11-15.4-20-26.4-26.2-11-6.6-23.4-9.6-36.2-9.6h-877c-12.8 0-25 3.2-36.2 9.6s-20.2 15.4-26.4 26.2c-14 23.8-14.6 48-1.2 72l438.2 803.6c6.6 11.6 15.4 21 26.8 27.8s23.8 10.2 37 10.2c13.4 0 25.6-3.4 37-10.2 11.8-6.6 20.6-15.8 27.2-27.8z" />
<glyph unicode="&#xe61d;" glyph-name="voicemail" d="M780.359 624.552c-95.338 0-173.021-81.214-173.021-176.552 0-38.841 12.359-70.621 33.545-105.931h-257.766c21.186 35.31 33.545 67.090 33.545 105.931 0 95.338-77.683 174.786-173.021 174.786s-173.021-75.917-173.021-171.255c0-47.669 21.186-93.572 54.731-127.117 35.31-31.779 81.214-47.669 127.117-49.434 58.262-1.766 118.29-3.531 176.552-3.531 95.338 0 192.441 0 287.779 0 60.028 0 116.524 1.766 165.959 38.841 42.372 31.779 68.855 84.745 68.855 139.476 1.766 95.338-75.917 174.786-171.255 174.786zM141.241 451.531c0 56.497 45.903 102.4 102.4 102.4s102.4-45.903 102.4-102.4-45.903-102.4-102.4-102.4c-56.497 0-102.4 45.903-102.4 102.4zM780.359 349.131c-56.497 0-102.4 45.903-102.4 102.4s45.903 102.4 102.4 102.4 102.4-45.903 102.4-102.4-45.903-102.4-102.4-102.4z" />
<glyph unicode="&#xe61e;" glyph-name="missed-call" d="M656.772 239.669c-15.89 31.779-49.434 51.2-84.745 51.2l-114.759-1.766-132.414 261.297 77.683 75.917c21.186 28.248 24.717 67.090 1.766 112.993l-54.731 107.697c-21.186 42.372-70.621 54.731-107.697 24.717-56.497-45.903-98.869-109.462-120.055-180.083-14.124-47.669-8.828-98.869 14.124-143.007l65.324-128.883 84.745-165.959 67.090-130.648c21.186-44.138 58.262-77.683 104.166-95.338 70.621-26.483 150.069-28.248 222.455-8.828 40.607 10.593 61.793 58.262 42.372 95.338-22.952 42.372-44.138 82.979-65.324 125.352zM815.669 571.586l81.214 81.214c19.421 19.421 19.421 49.434 0 67.090-19.421 19.421-49.434 19.421-67.090 0l-81.214-81.214-81.214 81.214c-19.421 19.421-49.434 19.421-67.090 0s-19.421-49.434 0-67.090l81.214-81.214-81.214-79.448c-19.421-19.421-19.421-49.434 0-67.090 8.828-8.828 21.186-14.124 33.545-14.124s24.717 5.297 33.545 14.124l79.448 79.448 79.448-79.448c8.828-8.828 21.186-14.124 33.545-14.124s24.717 5.297 33.545 14.124c19.421 19.421 19.421 49.434 0 67.090l-77.683 79.448z" />
<glyph unicode="&#xe61f;" glyph-name="horz-container" d="M962.6 898.6c-41 41-90.2 61.4-148 61.4h-605.2c-57.6 0-107-20.4-148-61.4s-61.4-90.2-61.4-148v-605c0-57.6 20.4-107 61.4-148s90.4-61.6 148-61.6h605.2c57.6 0 107 20.6 148 61.4s61.4 90.2 61.4 148v605.2c0 57.6-20.4 107-61.4 148zM931 145.4c0-32-11.4-59.4-34.2-82.2s-50.2-34.2-82.2-34.2h-605.2c-32 0-59.4 11.4-82.2 34.2s-34.2 50.2-34.2 82.2v605.2c0 32 11.4 59.4 34.2 82.2s50.2 34.2 82.2 34.2h605.2c32 0 59.4-11.4 82.2-34.2s34.2-50.2 34.2-82.2v-605.2zM752.6 564.6c-5 4.8-10.8 7.4-17.4 7.4s-12.6-2.4-17.4-7.4c-5-5-7.4-10.8-7.4-17.4v-49.6h-396.6v49.6c0 6.8-2.4 12.6-7.4 17.4s-10.8 7.4-17.4 7.4c-6.8 0-12.6-2.4-17.4-7.4l-99.2-99.2c-5-4.8-7.4-10.8-7.4-17.4 0-6.8 2.4-12.6 7.4-17.4l99.2-99.2c5-5 10.8-7.4 17.4-7.4 6.8 0 12.6 2.4 17.4 7.4 5 4.8 7.4 10.8 7.4 17.4v49.6h396.6v-49.6c0-6.8 2.4-12.6 7.4-17.4 5-5 10.8-7.4 17.4-7.4s12.6 2.4 17.4 7.4l99.2 99.2c5 4.8 7.4 10.8 7.4 17.4 0 6.8-2.4 12.6-7.4 17.4l-99.2 99.2z" />
<glyph unicode="&#xe620;" glyph-name="vert-container" d="M962.6 898.6c-41 41-90.2 61.4-148 61.4h-605.2c-57.8 0-107-20.4-148-61.4s-61.4-90.2-61.4-148v-605.2c0-57.6 20.4-107 61.4-148s90.2-61.4 148-61.4h605c57.6 0 107 20.4 148 61.4s61.4 90.2 61.4 148v605.2c0.2 57.6-20.4 107-61.2 148zM930.8 145.4c0-32-11.4-59.4-34.2-82.2s-50.2-34.2-82.2-34.2h-605c-32 0-59.4 11.4-82.2 34.2s-34.2 50.2-34.2 82.2v605.2c0 32 11.4 59.4 34.2 82.2s50.2 34.2 82.2 34.2h605c32 0 59.4-11.4 82.2-34.2s34.2-50.2 34.2-82.2v-605.2zM611.2 646.2c6.8 0 12.6 2.4 17.4 7.4 5 5 7.4 10.8 7.4 17.4s-2.4 12.6-7.4 17.4l-99.2 99.2c-4.8 5-10.8 7.4-17.4 7.4-6.8 0-12.6-2.4-17.4-7.4l-99.2-99.2c-4.8-5-7.4-10.8-7.4-17.4s2.4-12.6 7.4-17.4c5-5 10.8-7.4 17.4-7.4h49.6v-396.6h-49.6c-6.8 0-12.6-2.4-17.4-7.4s-7.4-10.8-7.4-17.4c0-6.8 2.4-12.6 7.4-17.4l99.2-99.2c4.8-5 10.8-7.4 17.4-7.4 6.8 0 12.6 2.4 17.4 7.4l99.2 99.2c5 5 7.4 10.8 7.4 17.4 0 6.8-2.4 12.6-7.4 17.4-4.8 5-10.8 7.4-17.4 7.4h-49.6v396.6h49.6z" />
<glyph unicode="&#xe621;" glyph-name="btmleft" d="M929-64h-834c-52.2 0-95 42.8-95 95v0 834c0 52.2 42.8 95 95 95v0c52.2 0 95-42.8 95-95v-365h249.2c64.2 0 116.8-52.6 116.8-116.8v-257.2h373c52.2 0 95-42.8 95-95v0c0-52.2-42.8-95-95-95z" />
<glyph unicode="&#xe622;" glyph-name="btmright" d="M95-64h834c52.2 0 95 42.8 95 95v0 834c0 52.2-42.8 95-95 95v0c-52.2 0-95-42.8-95-95v-365h-249.2c-64.2 0-116.8-52.6-116.8-116.8v-257.2h-373c-52.2 0-95-42.8-95-95v0c0-52.2 42.8-95 95-95z" />
<glyph unicode="&#xe623;" glyph-name="topleft" d="M929 960h-834c-52.2 0-95-42.8-95-95v0-834c0-52.2 42.8-95 95-95v0c52.2 0 95 42.8 95 95v365h249.2c64.2 0 116.8 52.6 116.8 116.8v257.2h373c52.2 0 95 42.8 95 95v0c0 52.2-42.8 95-95 95z" />
<glyph unicode="&#xe624;" glyph-name="topright" d="M95 960h834c52.2 0 95-42.8 95-95v0-834c0-52.2-42.8-95-95-95v0c-52.2 0-95 42.8-95 95v365h-249.2c-64.2 0-116.8 52.6-116.8 116.8v257.2h-373c-52.2 0-95 42.8-95 95v0c0 52.2 42.8 95 95 95z" />
<glyph unicode="&#xe625;" glyph-name="listbox" d="M962.6 898.6c-41 41-90.4 61.4-148 61.4h-605.2c-57.6 0-107-20.4-148-61.4s-61.4-90.4-61.4-148v-605c0-57.8 20.4-107 61.4-148s90.2-61.4 148-61.4h605c57.6 0 107 20.4 148 61.4s61.4 90.2 61.4 148v605c0.2 57.6-20.2 107-61.2 148zM931 145.4c0-32-11.4-59.4-34.2-82.2s-50.2-34.2-82.2-34.2h-605.2c-32 0-59.4 11.4-82.2 34.2s-34.2 50.2-34.2 82.2v605.2c0 32 11.4 59.4 34.2 82.2s50.2 34.2 82.2 34.2h605c32 0 59.4-11.4 82.2-34.2s34.2-50.2 34.2-82.2v-605.2zM267.4 514.8c-18.6 0-34.2-6.4-47.2-19.4s-19.4-28.8-19.4-47.2c0-18.6 6.4-34.2 19.4-47.2s28.8-19.4 47.2-19.4c18.6 0 34.2 6.4 47.2 19.4s19.4 28.8 19.4 47.2c0 18.6-6.4 34.2-19.4 47.2-12.8 12.8-28.6 19.4-47.2 19.4zM267.4 336.8c-18.6 0-34.2-6.4-47.2-19.4s-19.4-28.8-19.4-47.2c0-18.6 6.4-34.2 19.4-47.2s28.8-19.4 47.2-19.4c18.6 0 34.2 6.4 47.2 19.4s19.4 28.8 19.4 47.2c0 18.6-6.4 34.2-19.4 47.2-12.8 13-28.6 19.4-47.2 19.4zM267.4 692.6c-18.6 0-34.2-6.4-47.2-19.4s-19.4-28.8-19.4-47.2c0-18.6 6.4-34.2 19.4-47.2s28.8-19.4 47.2-19.4c18.6 0 34.2 6.4 47.2 19.4s19.4 28.8 19.4 47.2c0 18.6-6.4 34.2-19.4 47.2-12.8 12.8-28.6 19.4-47.2 19.4zM812.2 314.6h-422.4c-3 0-5.6-1.2-7.8-3.4s-3.4-4.8-3.4-7.8v-66.8c0-3 1-5.6 3.4-7.8 2.2-2.2 4.8-3.4 7.8-3.4h422.4c3 0 5.6 1 7.8 3.4 2.2 2.2 3.4 4.8 3.4 7.8v66.8c0 3-1.2 5.6-3.4 7.8s-4.8 3.4-7.8 3.4zM812.2 670.4h-422.4c-3 0-5.6-1.2-7.8-3.4s-3.4-4.8-3.4-7.8v-66.8c0-3 1-5.6 3.4-7.8 2.2-2.2 4.8-3.2 7.8-3.2h422.4c3 0 5.6 1 7.8 3.2s3.4 4.8 3.4 7.8v66.8c0 3-1.2 5.6-3.4 7.8s-4.8 3.4-7.8 3.4zM812.2 492.4h-422.4c-3 0-5.6-1.2-7.8-3.2-2.2-2.2-3.4-4.8-3.4-7.8v-66.8c0-3 1-5.6 3.4-7.8 2.2-2.2 4.8-3.4 7.8-3.4h422.4c3 0 5.6 1 7.8 3.4 2.2 2.2 3.4 4.8 3.4 7.8v66.8c0 3-1.2 5.6-3.4 7.8s-4.8 3.2-7.8 3.2z" />
<glyph unicode="&#xe626;" glyph-name="btn-group-choose" d="M963 773c-41 41-90.4 61.6-148.2 61.6h-605.6c-57.8 0-107.2-20.6-148.2-61.6s-61.6-90.4-61.6-148.2v-102.4c0-57.8 20.6-107.2 61.6-148.2s90.4-61.6 148.2-61.6h428.2l-9 93.2h-76.4v335.4h262.8c32 0 59.4-11.4 82.2-34.2s34.2-50.2 34.2-82.2v-102.4c0-11.2-1.4-21.8-4.2-31.8l75.8-61.8c14.4 28.2 21.6 59.6 21.6 93.6v102.4c0.2 57.6-20.4 107-61.4 148.2zM472 406h-262.8c-32 0-59.4 11.4-82.2 34.2s-34.2 50.2-34.2 82.2v102.4c0 32 11.4 59.4 34.2 82.2s50.2 34.2 82.2 34.2h262.8v-335.2zM1010.2 345.6l-273.6 223c-26 21-64.2 0.6-60.8-32.6l34.2-351.2c2.6-26.6 31.4-42 54.8-29.2l51.8 28 54.8-102.2c9.6-18.2 32.2-25 50.4-15.4l69.2 37.4c18.2 9.6 25 32.2 15.4 50.4l-54.8 102.2 51.8 28c24.6 12.4 27.6 44.8 6.8 61.6z" />
<glyph unicode="&#xe627;" glyph-name="numeric-spinner" d="M708.2 392h-392.4c-7.6 0-14.2-2.8-19.8-8.4s-8.4-12.2-8.4-19.8c0-7.6 2.8-14.2 8.4-19.8l196.2-196.2c5.6-5.6 12.2-8.4 19.8-8.4s14.2 2.8 19.8 8.4l196.2 196.2c5.6 5.6 8.4 12.2 8.4 19.8s-2.8 14.2-8.4 19.8c-5.6 5.6-12.2 8.4-19.8 8.4zM531.8 748c-5.6 5.6-12.2 8.4-19.8 8.4s-14.2-2.8-19.8-8.4l-196.2-196.2c-5.6-5.6-8.4-12.2-8.4-19.8s2.8-14.2 8.4-19.8c5.6-5.6 12.2-8.4 19.8-8.4h392.6c7.6 0 14.2 2.8 19.8 8.4s8.4 12.2 8.4 19.8c0 7.6-2.8 14.2-8.4 19.8l-196.4 196.2zM963 899c-41 41-90.4 61.6-148.2 61.6h-605.6c-57.8 0-107.2-20.6-148.2-61.6s-61.6-90.4-61.6-148.2v-605.8c0-57.8 20.6-107.2 61.6-148.2 41-40.8 90.4-61.4 148.2-61.4h605.8c57.8 0 107.2 20.4 148.2 61.6 41 41 61.6 90.4 61.6 148.2v605.6c-0.2 57.8-20.8 107.2-61.8 148.2zM931.4 145.2c0-32-11.4-59.4-34.2-82.2s-50.2-34.2-82.2-34.2h-605.8c-32 0-59.4 11.4-82.2 34.2s-34.2 50.2-34.2 82.2v605.6c0 32 11.4 59.4 34.2 82.2s50.2 34.2 82.2 34.2h605.8c32 0 59.4-11.4 82.2-34.2s34.2-50.2 34.2-82.2v-605.6z" />
<glyph unicode="&#xe628;" glyph-name="move-file" d="M874.6 74.6c-1.6-1.6-3.2-3-3.8-3.6-8.6-7.8-17.8-14.2-28-18.8v-42.6h-731v877h438.6v-237.6c0-30.2 24.6-54.8 54.8-54.8h237.6v-42.6c10-4.8 19.4-11 27.8-18.8 0.8-0.8 2.2-2 3.8-3.6l41.4-41.8v161.8c0 30.2-17.6 72.6-38.8 93.6l-178.2 178.2c-21.2 21.2-63.4 38.8-93.8 38.8h-511.6c-30.2 0-54.8-24.6-54.8-54.8v-913.8c0-30.2 24.6-54.8 54.8-54.8h767.6c30.2 0 54.8 24.6 54.8 54.8v125.2l-41.2-41.8zM623.6 882c9.6-3.4 19.4-8.6 23.4-12.6l178.8-178.8c4-4 9.2-13.6 12.6-23.4h-214.8v214.8zM985.4 302.2c0 12.2-4.4 22.6-13.4 31.6l-145.4 147.2c-0.6 0.6-1 1-1.6 1.4-8.6 7.8-18.4 11.8-30 11.8-11.4 0-21.4-4-30-11.8-0.6-0.6-1.2-1-1.6-1.4s-0.8-0.8-1.2-1.2c-7.6-8.2-11.6-17.6-12-28.6 0-0.6 0-1.2 0-1.8v0-43.8c0-7.6-6.2-13.8-13.8-13.8h-172.4c-6 0-11.8-3.8-13.2-9.4v-161.6c1.4-5.6 7.2-9.4 13.2-9.4h172.4c7.6 0 13.8-6.2 13.8-13.8v-43.8c0-0.6 0-1.2 0-1.8 0.4-10.8 4.4-20.4 12-28.6 0.4-0.4 0.8-0.8 1.2-1.2 0.6-0.6 1-1 1.6-1.4 8.6-7.8 18.4-11.8 30-11.8 11.4 0 21.4 4 30 11.8 0.6 0.6 1.2 1 1.6 1.4l145.4 147.2c8.8 8.8 13.4 19.4 13.4 31.6 0 0.2 0 0.2 0 0.4-0.2 0.6 0 0.6 0 0.8z" />
<glyph unicode="&#xe629;" glyph-name="video" d="M723.862 499.2v137.71c0 47.669-44.138 75.917-88.276 75.917h-483.752c-45.903 0-81.214-28.248-81.214-75.917v-377.821c0-47.669 35.31-75.917 81.214-75.917h483.752c44.138 0 88.276 28.248 88.276 75.917v127.117l229.517-174.786v474.924l-229.517-187.145z" />
<glyph unicode="&#xe62a;" glyph-name="screen-small" d="M387.072 960l-81.408-0.512c-6.144 0-11.264-2.048-15.872-6.144-4.096-4.096-6.144-9.216-6.144-15.872v-261.12h-261.12c-6.144 0-11.264-2.048-15.872-6.144-4.096-4.096-6.144-9.216-6.144-15.872l-0.512-81.408c0-6.144 2.048-11.264 6.656-15.872 4.096-4.608 9.728-6.656 15.872-6.656l365.056 0.512c6.144 0 11.264 2.048 15.872 6.144 4.096 4.096 6.144 9.216 6.144 15.872v364.544c0 6.144-2.048 11.776-6.656 15.872-4.096 4.608-9.728 6.656-15.872 6.656zM621.056 557.056c4.096-4.096 9.216-6.144 15.872-6.144l365.056-0.512c6.144 0 11.776 2.048 15.872 6.656 4.096 4.096 6.656 9.728 6.656 15.872l-0.512 81.408c0 6.144-2.048 11.264-6.144 15.872-4.096 4.096-9.216 6.144-15.872 6.144h-261.12v261.12c0 6.144-2.048 11.264-6.144 15.872-4.096 4.096-9.216 6.144-15.872 6.144l-81.92 0.512c-6.144 0-11.264-2.048-15.872-6.656-4.096-4.096-6.656-9.728-6.656-15.872l0.512-365.056c0-6.144 1.536-11.264 6.144-15.36zM402.432 339.456c-4.096 4.096-9.216 6.144-15.872 6.144h-364.032c-6.144 0-11.776-2.048-15.872-6.656s-6.656-9.728-6.656-15.872l0.512-81.408c0-6.144 2.048-11.264 6.144-15.872 4.096-4.096 9.216-6.144 15.872-6.144h261.12v-261.12c0-6.144 2.048-11.264 6.144-15.872 4.096-4.096 9.216-6.144 15.872-6.144l81.408-0.512c6.144 0 11.264 2.048 15.872 6.656 4.096 4.096 6.656 9.728 6.656 15.872l-0.512 365.056c-0.512 6.656-2.56 11.776-6.656 15.872zM1000.96 345.088l-365.056-0.512c-6.144 0-11.264-2.048-15.872-6.144-4.096-4.096-6.144-9.216-6.144-15.872l0.512-364.544c0-6.144 2.048-11.776 6.656-15.872s9.728-6.656 15.872-6.656l81.408 0.512c6.144 0 11.264 2.048 15.872 6.144 4.096 4.096 6.144 9.216 6.144 15.872v261.12h261.12c6.144 0 11.264 2.048 15.872 6.144 4.096 4.096 6.144 9.216 6.144 15.872l0.512 81.408c0 6.144-2.048 11.264-6.656 15.872-4.608 4.096-10.24 6.656-16.384 6.656z" />
<glyph unicode="&#xe62b;" glyph-name="video-off" d="M651.476 732.248c-3.531 0-7.062 1.766-12.359 1.766h-459.034c-44.138 0-77.683-26.483-77.683-72.386v-358.4c0-17.655 5.297-31.779 12.359-42.372l536.717 471.393zM723.862 529.214v79.448l160.662 141.241c14.124 12.359 15.89 35.31 3.531 49.434s-35.31 15.89-49.434 3.531l-745.048-656.772c-14.124-12.359-15.89-35.31-3.531-49.434 7.062-8.828 15.89-12.359 26.483-12.359 8.828 0 15.89 3.531 22.952 8.828l153.6 135.945h344.276c42.372 0 82.979 26.483 82.979 72.386v121.821l217.159-165.959v450.207l-213.628-178.317z" />
<glyph unicode="&#xe62c;" glyph-name="screenshare" d="M833.324 871.724h-642.648c-65.324 0-120.055-51.2-120.055-116.524v-436.083c0-67.090 54.731-118.29 120.055-118.29h268.359v-88.276h-52.966c-24.717 0-45.903-19.421-45.903-44.138s21.186-44.138 45.903-44.138h211.862c24.717 0 45.903 19.421 45.903 44.138s-21.186 44.138-45.903 44.138h-52.966v88.276h268.359c67.090 0 120.055 51.2 120.055 118.29v436.083c0 65.324-54.731 116.524-120.055 116.524zM190.676 783.448h642.648c15.89 0 31.779-14.124 31.779-28.248v-377.821h-706.207v377.821c0 14.124 17.655 28.248 31.779 28.248zM365.462 550.4c3.531-1.766 8.828-3.531 12.359-3.531h204.8l-42.372-44.138c-12.359-12.359-12.359-33.545 0-45.903 3.531-3.531 7.062-5.297 10.593-7.062 12.359-5.297 26.483-3.531 37.076 7.062l93.572 95.338c0 0 0 0 1.766 1.766 7.062 7.062 10.593 15.89 10.593 24.717 0 10.593-3.531 19.421-10.593 24.717 0 0 0 0-1.766 1.766l-95.338 93.572c-12.359 12.359-33.545 12.359-45.903 0s-12.359-33.545 0-45.903l42.372-42.372h-203.034c-17.655 0-33.545-14.124-33.545-33.545 0-10.593 8.828-21.186 19.421-26.483z" />
<glyph unicode="&#xe62d;" glyph-name="screen-full" d="M387.072 960l-364.544-0.512c-6.144 0-11.264-2.048-15.872-6.144s-6.144-9.728-6.144-15.872l-0.512-364.544c0-6.144 2.048-11.776 6.656-15.872s9.728-6.656 15.872-6.656l81.408 0.512c6.144 0 11.264 2.048 15.872 6.144 4.096 4.096 6.144 9.216 6.144 15.872v261.12h261.12c6.144 0 11.264 2.048 15.872 6.144 4.096 4.096 6.144 9.216 6.144 15.872l0.512 81.408c0 6.144-2.048 11.264-6.656 15.872-4.096 4.608-9.728 6.656-15.872 6.656zM636.416 834.048h261.12v-261.12c0-6.144 2.048-11.264 6.144-15.872 4.096-4.096 9.216-6.144 15.872-6.144l81.408-0.512c6.144 0 11.264 2.048 15.872 6.656 4.096 4.096 6.656 9.728 6.656 15.872l0.512 364.032c0 6.144-2.048 11.264-6.144 15.872-4.096 4.096-9.216 6.144-15.872 6.144l-365.056 1.024c-6.144 0-11.776-2.048-15.872-6.656s-6.656-9.728-6.656-15.872l0.512-81.408c0-6.144 2.048-11.264 6.144-15.872 4.096-4.096 9.216-6.144 15.36-6.144zM402.944 55.296c-4.096 4.096-9.216 6.144-15.872 6.144h-261.12v261.12c0 6.144-2.048 11.264-6.144 15.872-4.096 4.096-9.216 6.144-15.872 6.144l-81.408 1.024c-6.144 0-11.264-2.048-15.872-6.656-4.096-4.096-6.656-9.728-6.656-15.872l0.512-365.056c0-6.144 2.048-11.264 6.144-15.872s9.216-6.144 15.872-6.144l365.056-0.512c6.144 0 11.776 2.048 15.872 6.656 4.096 4.096 6.656 9.728 6.656 15.872l-0.512 81.408c-0.512 6.656-2.048 11.776-6.656 15.872zM1017.856 339.456c-4.608 3.584-10.24 6.144-16.384 6.144l-81.408-0.512c-6.144 0-11.264-2.048-15.872-6.144-4.096-4.096-6.144-9.216-6.144-15.872v-261.12h-261.12c-6.144 0-11.264-2.048-15.872-6.144-4.096-4.096-6.144-9.216-6.144-15.872l-0.512-81.408c0-6.144 2.048-11.264 6.656-15.872 4.096-4.096 9.728-6.656 15.872-6.656l365.056 0.512c6.144 0 11.264 2.048 15.872 6.144 4.096 4.096 6.144 9.216 6.144 15.872l0.512 365.056c0 6.144-2.048 11.776-6.656 15.872z" />
<glyph unicode="&#xe62e;" glyph-name="chevron-circle-down" d="M2.6 448c0-281.2 228.2-509.4 509.4-509.4s509.4 228.2 509.4 509.4-228.2 509.4-509.4 509.4-509.4-228.2-509.4-509.4zM736.6 588.2c4.2 4.2 13.6 4.2 17.6 0l67.6-67.6c2.6-2.6 3.6-7.4 2.8-11.6 0 0 0-0.2 0-0.2 0-0.4-0.2-0.8-0.2-1s0-0.2-0.2-0.4c0-0.2-0.2-0.6-0.2-0.8s-0.2-0.2-0.2-0.4-0.2-0.6-0.4-0.8c0-0.2-0.2-0.2-0.2-0.4-0.2-0.2-0.2-0.4-0.4-0.8 0-0.2-0.2-0.2-0.2-0.4-0.2-0.4-0.6-0.6-0.8-1l-301-301c-4.2-4.2-13.6-4.2-17.6 0l-301.2 301c-4.2 4.2-4.2 13.6 0 17.6l67.8 67.8c4.2 4.2 13.6 4.2 17.6 0l224.6-224.6 224.6 224.6z" />
<glyph unicode="&#xe62f;" glyph-name="chevron-circle-left" d="M512 957.4c-281.2 0-509.4-228.2-509.4-509.4s228.2-509.4 509.4-509.4 509.4 228.2 509.4 509.4-228.2 509.4-509.4 509.4zM652.2 223.4c4.2-4.2 4.2-13.6 0-17.6l-6.2-6.2-61.4-61.6c-2.6-2.6-7.4-3.6-11.6-2.8 0 0-0.2 0-0.2 0-0.4 0-0.8 0.2-1 0.2s-0.2 0-0.4 0.2c-0.2 0-0.6 0.2-0.8 0.2s-0.2 0.2-0.4 0.2-0.6 0.2-0.8 0.4c-0.2 0-0.2 0.2-0.4 0.2-0.2 0.2-0.4 0.2-0.8 0.4-0.2 0-0.2 0.2-0.4 0.2-0.4 0.2-0.6 0.6-1 0.8l-301 301.2c-4.2 4.2-4.2 13.6 0 17.6l301 301.2c4.2 4.2 13.6 4.2 17.6 0l67.8-67.8c4.2-4.2 4.2-13.6 0-17.6l-224.6-224.6 224.6-224.6z" />
<glyph unicode="&#xe630;" glyph-name="chevron-circle-right" d="M512-61.4c281.2 0 509.4 228.2 509.4 509.4s-228.2 509.4-509.4 509.4-509.4-228.2-509.4-509.4 228.2-509.4 509.4-509.4zM371.8 672.6c-4.2 4.2-4.2 13.6 0 17.6l67.6 67.6c2.6 2.6 7.4 3.6 11.6 2.8 0 0 0.2 0 0.2 0 0.4 0 0.8-0.2 1-0.2s0.2 0 0.4-0.2c0.2 0 0.6-0.2 0.8-0.2s0.2-0.2 0.4-0.2 0.6-0.2 0.8-0.4c0.2 0 0.2-0.2 0.4-0.2 0.2-0.2 0.4-0.2 0.8-0.4 0.2 0 0.2-0.2 0.4-0.2 0.4-0.2 0.6-0.6 1-0.8l301-301c4.2-4.2 4.2-13.6 0-17.6l-301-301.2c-4.2-4.2-13.6-4.2-17.6 0l-67.8 67.8c-4.2 4.2-4.2 13.6 0 17.6l224.6 224.6-224.6 224.6z" />
<glyph unicode="&#xe631;" glyph-name="chevron-circle-up" d="M1021.4 448c0 281.2-228.2 509.4-509.4 509.4s-509.4-228.2-509.4-509.4 228.2-509.4 509.4-509.4 509.4 228.2 509.4 509.4zM287.4 307.8c-4.2-4.2-13.6-4.2-17.6 0l-6.2 6.2-61.6 61.4c-2.6 2.6-3.6 7.4-2.8 11.6 0 0 0 0.2 0 0.2 0 0.4 0.2 0.8 0.2 1s0 0.2 0.2 0.4c0 0.2 0.2 0.6 0.2 0.8s0.2 0.2 0.2 0.4 0.2 0.6 0.4 0.8c0 0.2 0.2 0.2 0.2 0.4 0.2 0.2 0.2 0.4 0.4 0.8 0 0.2 0.2 0.2 0.2 0.4 0.2 0.4 0.6 0.6 0.8 1l301 301c4.2 4.2 13.6 4.2 17.6 0l301.4-301c4.2-4.2 4.2-13.6 0-17.6l-67.8-67.8c-4.2-4.2-13.6-4.2-17.6 0l-224.6 224.6-224.6-224.6z" />
<glyph unicode="&#xe632;" glyph-name="minus-circle" d="M512 957.4c-281.2 0-509.4-228.2-509.4-509.4s228.2-509.4 509.4-509.4 509.4 228.2 509.4 509.4-228.2 509.4-509.4 509.4zM779.4 405.6c0-6.8-6-12.8-12.8-12.8h-509.2c-6.8 0-12.8 6-12.8 12.8v84.8c0 6.8 6 12.8 12.8 12.8h509.4c6.8 0 12.8-6 12.8-12.8v-84.8z" />
<glyph unicode="&#xe633;" glyph-name="plus-circle" d="M512 957.4c-281.2 0-509.4-228.2-509.4-509.4s228.2-509.4 509.4-509.4 509.4 228.2 509.4 509.4-228.2 509.4-509.4 509.4zM779.4 405.6c0-6.8-6-12.8-12.8-12.8h-199.4v-199.4c0-6.8-6-12.8-12.8-12.8h-84.8c-6.8 0-12.8 6-12.8 12.8v199.4h-199.4c-6.8 0-12.8 6-12.8 12.8v84.8c0 6.8 6 12.8 12.8 12.8h199.4v199.4c0 6.8 6 12.8 12.8 12.8h84.8c6.8 0 12.8-6 12.8-12.8v-199.4h199.4c6.8 0 12.8-6 12.8-12.8v-84.8z" />
<glyph unicode="&#xe634;" glyph-name="comet" d="M1024 448c-1.27 66.846-15.77 133.53-42.558 194.478-26.706 60.988-65.454 116.244-113.050 161.914-47.554 45.712-103.956 81.838-164.986 105.636-60.99 23.922-126.606 35.348-191.406 33.956-64.798-1.27-129.352-15.36-188.334-41.37-59.064-25.886-112.558-63.488-156.754-109.568-44.236-46.080-79.176-100.722-102.194-159.786-23.1-59.064-34.12-122.51-32.726-185.262 1.27-62.75 14.95-125.134 40.14-182.19 25.068-57.098 61.482-108.832 106.126-151.552 44.604-42.762 97.484-76.514 154.624-98.714 57.098-22.322 118.456-32.89 179.158-31.538 60.702 1.27 120.956 14.542 176.086 38.912 55.132 24.288 105.102 59.474 146.35 102.646 41.288 43.13 73.85 94.25 95.274 149.422 13.024 33.464 21.874 68.404 26.542 103.794 1.23-0.082 2.5-0.124 3.768-0.124 35.348 0 64.020 28.672 64.020 64.020 0 1.802-0.082 3.564-0.246 5.326h0.246zM922.296 278.058c-23.47-53.206-57.466-101.418-99.164-141.188-41.656-39.812-91.014-71.188-144.26-91.792-53.248-20.684-110.306-30.432-166.87-29.082-56.606 1.312-112.598 13.722-163.84 36.454-51.24 22.65-97.69 55.5-135.986 95.724-38.338 40.182-68.526 87.778-88.31 139.058-19.866 51.282-29.246 106.21-27.854 160.768 1.312 54.558 13.312 108.422 35.266 157.696 21.872 49.316 53.494 93.962 92.242 130.826s84.54 65.864 133.858 84.87c49.356 19.046 102.154 28.016 154.624 26.624 52.51-1.312 104.244-12.902 151.552-34.038 47.35-21.054 90.276-51.488 125.624-88.802 35.39-37.274 63.202-81.306 81.388-128.696 18.268-47.392 26.788-98.058 25.436-148.48h0.246c-0.164-1.76-0.246-3.524-0.246-5.326 0-33.014 24.986-60.17 57.098-63.61-6.226-34.816-16.548-68.812-30.76-101.006z" />
<glyph unicode="&#xe635;" glyph-name="border-dashed" d="M432.4 513.4h-350.8c-26.4 0-47.8-21.4-47.8-47.8v-95.8c0-26.4 21.4-47.8 47.8-47.8h351c26.4 0 47.8 21.4 47.8 47.8v95.8c0 26.4-21.6 47.8-48 47.8zM942.4 513.4h-350.8c-26.4 0-47.8-21.4-47.8-47.8v-95.8c0-26.4 21.4-47.8 47.8-47.8h351c26.4 0 47.8 21.4 47.8 47.8v95.8c0 26.4-21.6 47.8-48 47.8z" />
<glyph unicode="&#xe636;" glyph-name="border-dotted" d="M177.2 513.4h-95.8c-26.4 0-47.8-21.4-47.8-47.8v-95.8c0-26.4 21.4-47.8 47.8-47.8h95.8c26.4 0 47.8 21.4 47.8 47.8v95.8c0 26.4-21.4 47.8-47.8 47.8zM432.4 513.4h-95.8c-26.4 0-47.8-21.4-47.8-47.8v-95.8c0-26.4 21.4-47.8 47.8-47.8h95.8c26.4 0 47.8 21.4 47.8 47.8v95.8c0.2 26.4-21.4 47.8-47.8 47.8zM687.2 513.4h-95.8c-26.4 0-47.8-21.4-47.8-47.8v-95.8c0-26.4 21.4-47.8 47.8-47.8h95.8c26.4 0 47.8 21.4 47.8 47.8v95.8c0 26.4-21.4 47.8-47.8 47.8zM942.4 513.4h-95.8c-26.4 0-47.8-21.4-47.8-47.8v-95.8c0-26.4 21.4-47.8 47.8-47.8h95.8c26.4 0 47.8 21.4 47.8 47.8v95.8c0.2 26.4-21.4 47.8-47.8 47.8z" />
<glyph unicode="&#xe637;" glyph-name="border-solid" d="M942.4 513.4h-860.8c-26.4 0-47.8-21.4-47.8-47.8v-95.8c0-26.4 21.4-47.8 47.8-47.8h861c26.4 0 47.8 21.4 47.8 47.8v95.8c0 26.4-21.6 47.8-48 47.8z" />
<glyph unicode="&#xe638;" glyph-name="chevron-circle-collapse-double" d="M512 957.4c-281.2 0-509.4-228.2-509.4-509.4s228.2-509.4 509.4-509.4 509.4 228.2 509.4 509.4-228.2 509.4-509.4 509.4zM494 130.6v0-16.6c0-0.4 0-0.6 0-1 0-0.2 0-0.2 0-0.4s0-0.4-0.2-0.6c0-0.2 0-0.2-0.2-0.4 0-0.2-0.2-0.4-0.2-0.6s0-0.2-0.2-0.4c0-0.2-0.2-0.4-0.4-0.6 0 0 0-0.2-0.2-0.2-0.2-0.2-0.2-0.4-0.4-0.8 0 0 0-0.2-0.2-0.2-2-2.8-5.2-4.8-8-4.8h-75.6c-4.6 0-9.8 5.2-9.8 9.8v220.8h-220.8c-4.6 0-9.8 5.2-9.8 9.8v75.6c0 4.6 5.2 9.8 9.8 9.8v0 0h306.2c4.6 0 9.8-5.2 9.8-9.8v-289.4zM856 476c0-3-2.2-6.2-4.8-8 0 0-0.2 0-0.2-0.2-0.2-0.2-0.4-0.4-0.8-0.4 0 0-0.2 0-0.2-0.2-0.2-0.2-0.4-0.2-0.6-0.4-0.2 0-0.2 0-0.4-0.2-0.2 0-0.4-0.2-0.6-0.2s-0.2 0-0.4-0.2c-0.2 0-0.4-0.2-0.6-0.2s-0.2 0-0.4 0c-0.4 0-0.6 0-1 0h-306.2c-4.6 0-9.8 5.2-9.8 9.8v306.2c0 4.6 5.2 9.8 9.8 9.8h75.6c4.6 0 9.8-5.2 9.8-9.8v-220.8h220.8c4.6 0 9.8-5.2 9.8-9.8v-75.4z" />
<glyph unicode="&#xe639;" glyph-name="chevron-circle-expand-double" d="M512 957.4c-281.2 0-509.4-228.2-509.4-509.4s228.2-509.4 509.4-509.4 509.4 228.2 509.4 509.4-228.2 509.4-509.4 509.4zM573 193c0-4.6-5.2-9.8-9.8-9.8v0 0h-306.2c-4.6 0-9.8 5.2-9.8 9.8v306c0 0.4 0 0.6 0 1 0 0.2 0 0.2 0 0.4s0 0.4 0.2 0.6c0 0.2 0 0.2 0.2 0.4 0 0.2 0.2 0.4 0.2 0.6s0 0.2 0.2 0.4c0 0.2 0.2 0.4 0.4 0.6 0 0 0 0.2 0.2 0.2 0.2 0.2 0.2 0.4 0.4 0.8 0 0 0 0.2 0.2 0.2 2 2.8 5.2 4.8 8 4.8h75.6c4.6 0 9.8-5.2 9.8-9.8v-220.8h220.8c4.6 0 9.8-5.2 9.8-9.8v-75.6zM777 397v0 0c0-4.6-5.2-9.8-9.8-9.8h-75.6c-4.6 0-9.8 5.2-9.8 9.8v220.8h-220.8c-4.6 0-9.8 5.2-9.8 9.8v75.6c0 3 2.2 6.2 4.8 8 0 0 0.2 0 0.2 0.2 0.2 0.2 0.4 0.4 0.8 0.4 0 0 0.2 0 0.2 0.2 0.2 0.2 0.4 0.2 0.6 0.4 0.2 0 0.2 0 0.4 0.2 0.2 0 0.4 0.2 0.6 0.2s0.2 0 0.4 0.2c0.2 0 0.4 0.2 0.6 0.2s0.2 0 0.4 0c0.4 0 0.6 0 1 0h306.2c4.6 0 9.8-5.2 9.8-9.8v-306.4z" />
<glyph unicode="&#xe63a;" glyph-name="phone-off" d="M333.683 421.517l19.421-38.841 130.648 120.055-24.717 51.2 77.683 75.917c21.186 28.248 24.717 67.090 1.766 112.993l-54.731 107.697c-21.186 42.372-70.621 54.731-107.697 24.717-56.497-45.903-98.869-109.462-120.055-180.083-14.124-47.669-8.828-98.869 14.124-143.007l63.559-130.648zM854.51 114.317c-21.186 42.372-42.372 82.979-63.559 125.352-15.89 31.779-49.434 51.2-84.745 51.2l-114.759-1.766-33.545 65.324 284.248 261.297c15.89 14.124 15.89 38.841 1.766 54.731s-38.841 15.89-54.731 1.766l-614.4-564.966c-15.89-12.359-15.89-37.076-1.766-52.966 7.062-8.828 17.655-12.359 28.248-12.359 8.828 0 19.421 3.531 26.483 10.593l199.503 183.614 56.497-112.993c21.186-44.138 58.262-77.683 104.166-95.338 70.621-26.483 150.069-28.248 222.455-8.828 42.372 10.593 63.559 58.262 44.138 95.338z" />
<glyph unicode="&#xe63b;" glyph-name="person-circle" d="M529.655 737.545h-31.779c-98.869 0-169.49-67.090-169.49-165.959v-54.731c0-107.697 82.979-194.207 190.676-194.207s190.676 86.51 190.676 194.207v54.731c0 98.869-81.214 165.959-180.083 165.959zM512 958.234c-280.717 0-510.234-227.752-510.234-510.234 0-167.724 81.214-316.028 204.8-407.834 35.31-26.483 74.152-47.669 116.524-65.324 58.262-22.952 121.821-37.076 188.91-37.076s130.648 12.359 188.91 37.076c42.372 15.89 81.214 38.841 116.524 65.324 123.586 93.572 204.8 241.876 204.8 407.834 0 282.483-229.517 510.234-510.234 510.234zM808.607 128.441c-22.952 81.214-97.103 134.179-197.738 134.179-3.531 0-5.297 0-7.062-1.766-58.262-26.483-123.586-28.248-181.848 0h-1.766c-3.531 1.766-3.531 1.766-5.297 1.766-100.634 0-174.786-54.731-199.503-135.945-86.51 79.448-141.241 194.207-141.241 321.324 0 241.876 197.738 437.848 437.848 437.848s437.848-195.972 437.848-437.848c0-125.352-54.731-240.11-141.241-319.559z" />
<glyph unicode="&#xe63c;" glyph-name="call-forward" d="M614.4 239.669c-15.89 31.779-49.434 51.2-84.745 51.2l-114.759-1.766-132.414 263.062 77.683 75.917c21.186 28.248 24.717 67.090 1.766 112.993l-54.731 107.697c-21.186 42.372-70.621 54.731-107.697 24.717-58.262-47.669-98.869-109.462-121.821-181.848-14.124-47.669-8.828-98.869 14.124-143.007l65.324-128.883 84.745-165.959 67.090-130.648c21.186-44.138 58.262-77.683 104.166-95.338 70.621-26.483 150.069-28.248 222.455-8.828 40.607 10.593 61.793 58.262 42.372 95.338-21.186 42.372-42.372 82.979-63.559 125.352zM939.255 504.497c0 0-1.766 1.766-1.766 1.766l-139.476 137.71c-19.421 19.421-49.434 17.655-67.090 0-19.421-19.421-17.655-49.434 0-67.090l61.793-60.028h-298.372c-26.483 0-47.669-21.186-47.669-47.669 0-19.421 12.359-37.076 28.248-44.138 5.297-1.766 12.359-3.531 19.421-3.531h300.138l-61.793-63.559c-19.421-19.421-17.655-49.434 0-67.090 3.531-3.531 8.828-7.062 14.124-10.593 17.655-7.062 38.841-3.531 52.966 10.593l137.71 139.476c0 0 1.766 1.766 1.766 1.766 8.828 8.828 14.124 22.952 14.124 37.076 0 12.359-5.297 24.717-14.124 35.31z" />
<glyph unicode="&#xe63d;" glyph-name="robot-head" d="M996.2 561h-29v152c0 15.4-12.4 27.8-27.8 27.8h-141.2v82.4c21.8 10.6 36.8 32.8 36.8 58.6 0 36-29.2 65.2-65.2 65.2s-65.2-29.2-65.2-65.2c0-25.8 15-48 36.8-58.6v-82.4h-466.2v82.4c21.8 10.6 36.8 32.8 36.8 58.6 0 36-29.2 65.2-65.2 65.2s-65.2-29.2-65.2-65.2c0-25.8 15-48 36.8-58.6v-82.4h-134c-15.4 0-27.8-12.4-27.8-27.8v-152h-29c-15.4 0-27.8-12.4-27.8-27.8v-248c0-15.4 12.4-27.8 27.8-27.8h29v-180.8c0-15.4 12.4-27.8 27.8-27.8h855.2c15.4 0 27.8 12.4 27.8 27.8v180.8h29c15.4 0 27.8 12.4 27.8 27.8v248c-0.2 15.4-12.6 27.8-28 27.8zM275.2 625.4c73.6 0 133.4-59.8 133.4-133.4s-59.8-133.4-133.4-133.4-133.4 59.8-133.4 133.4 59.8 133.4 133.4 133.4zM846.8 174.2h-676.8c-15.6 0-28.4 12.6-28.4 28.4 0 15.6 12.6 28.4 28.4 28.4h676.8c15.6 0 28.4-12.6 28.4-28.4 0-15.6-12.8-28.4-28.4-28.4zM741.8 358.4c-73.6 0-133.4 59.8-133.4 133.4s59.8 133.4 133.4 133.4 133.4-59.8 133.4-133.4-59.8-133.4-133.4-133.4zM818.6 492c0-42.416-34.384-76.8-76.8-76.8s-76.8 34.384-76.8 76.8c0 42.416 34.384 76.8 76.8 76.8s76.8-34.384 76.8-76.8zM352 492c0-42.416-34.384-76.8-76.8-76.8s-76.8 34.384-76.8 76.8c0 42.416 34.384 76.8 76.8 76.8s76.8-34.384 76.8-76.8z" />
<glyph unicode="&#xe800;" glyph-name="chat-off" d="M946.317 771.090c-12.359 14.124-35.31 15.89-49.434 3.531l-815.669-549.076c-14.124-12.359-15.89-35.31-3.531-49.434 7.062-8.828 15.89-12.359 26.483-12.359 8.828 0 15.89 3.531 22.952 8.828l56.497 37.076-28.248-88.276c-5.297-14.124 10.593-26.483 24.717-19.421l167.724 97.103c5.297 3.531 8.828 3.531 14.124 1.766 45.903-15.89 97.103-26.483 150.069-26.483 206.566 0 372.524 139.476 372.524 312.497 0 58.262-19.421 112.993-52.966 160.662l111.228 75.917c14.124 10.593 15.89 33.545 3.531 47.669zM723.862 741.076c-60.028 35.31-132.414 54.731-211.862 54.731-204.8 0-372.524-139.476-372.524-312.497 0-40.607 10.593-81.214 28.248-118.29l556.138 376.055z" />
<glyph unicode="&#xe801;" glyph-name="logo-inin" d="M462.6 396h-352.6c-1.2 0-2-1-1.8-2 21.4-192.8 181.6-344.2 378-352 1 0 2 0.8 2 1.8v338.4c-9.8 2.4-18.4 7.2-25.6 13.8zM536 852.2v-338.4c9.6-2.4 18.4-7.2 25.4-13.8h352.6c1.2 0 2 1 1.8 2-21.4 192.8-181.6 344.2-378 352-1 0-1.8-0.8-1.8-1.8zM536 382.2v-264.6c0-1 0.8-2 2-1.8 155.8 7.6 282.8 126.2 303.8 278.2 0.2 1.2-0.8 2.2-1.8 2.2h-278.6c-7.2-6.8-15.8-11.6-25.4-14zM488 513.8v264.6c0 1-0.8 2-2 1.8-155.6-7.6-282.6-126.2-303.6-278.2-0.2-1.2 0.8-2.2 1.8-2.2h278.4c7.2 6.8 15.8 11.6 25.4 14zM444.4 448c0 4.8 0.6 9.6 1.8 14h-387c-5 9.4-14.8 15.6-26.2 15.6-16.4 0-29.6-13.2-29.6-29.6s13.2-29.6 29.6-29.6c11.4 0 21.2 6.4 26.2 15.6h387c-1.2 4.4-1.8 9.2-1.8 14zM991 477.6c-11.4 0-21.2-6.4-26.2-15.6h-387c1.2-4.4 1.8-9.2 1.8-14s-0.6-9.6-1.8-14h387c5-9.4 14.8-15.6 26.2-15.6 16.4 0 29.6 13.2 29.6 29.6s-13.2 29.6-29.6 29.6zM541.6 448c0-16.348-13.252-29.6-29.6-29.6s-29.6 13.252-29.6 29.6c0 16.348 13.252 29.6 29.6 29.6s29.6-13.252 29.6-29.6z" />
<glyph unicode="&#xe802;" glyph-name="assist-off" d="M926.897 599.834c-7.062 17.655-26.483 28.248-45.903 21.186-17.655-7.062-28.248-31.779-21.186-49.434 12.359-31.779 19.421-70.621 21.186-105.931h-155.366c-19.421 0-35.31-10.593-35.31-30.014v-10.593c0-90.041-75.917-155.366-178.317-155.366-19.421 0-35.31-15.89-35.31-35.31 0 0 0 0 0-1.766 0 0 0 0 0-1.766v-153.6c-42.372 3.531-81.214 14.124-120.055 31.779-17.655 8.828-38.841 0-47.669-17.655s0-38.841 17.655-47.669c58.262-22.952 120.055-37.076 185.379-37.076 243.641 0 441.379 197.738 441.379 441.379 0 51.2-8.828 102.4-26.483 151.834zM547.31 79.007v121.821c116.524 14.124 203.034 88.276 211.862 194.207h120.055c-19.421-158.897-158.897-300.138-331.917-316.028zM139.476 250.262c5.297 0 8.828 1.766 14.124 3.531 17.655 7.062 26.483 24.717 17.655 42.372-14.124 31.779-22.952 63.559-26.483 98.869h150.069c14.124 0 28.248 14.124 33.545 28.248l3.531 10.593c1.766 3.531 1.766 8.828 1.766 12.359 0 98.869 79.448 178.317 178.317 178.317 19.421 0 35.31 15.89 35.31 35.31 0 0 0 1.766 0 1.766s0 1.766 0 1.766v153.6c45.903-3.531 90.041-15.89 130.648-37.076 17.655-8.828 38.841-1.766 47.669 15.89s1.766 38.841-15.89 47.669c-61.793 30.014-128.883 45.903-197.738 45.903-243.641 0-441.379-197.738-441.379-441.379 0-61.793 12.359-121.821 37.076-176.552 5.297-14.124 19.421-21.186 31.779-21.186zM476.69 816.993v-123.586c-111.228-15.89-201.269-104.166-211.862-227.752h-121.821c12.359 194.207 153.6 333.683 333.683 351.338zM944.552 845.241c-12.359 14.124-35.31 15.89-49.434 1.766l-812.138-746.814c-14.124-12.359-15.89-35.31-1.766-49.434 5.297-8.828 15.89-12.359 24.717-12.359s17.655 3.531 24.717 8.828l812.138 746.814c14.124 14.124 14.124 37.076 1.766 51.2z" />
<glyph unicode="&#xe803;" glyph-name="server" d="M1013.2 254.4c-7.4 7.2-15.8 10.8-25.8 10.8h-950.8c-10 0-18.4-3.6-25.6-10.8s-11-15.8-11-25.8v-146.2c0-10 3.6-18.4 11-25.8 7.2-7.2 15.8-10.8 25.6-10.8h950.8c10 0 18.4 3.6 25.8 10.8 7.2 7.2 10.8 15.8 10.8 25.8v146.2c0 9.8-3.6 18.4-10.8 25.8zM126.2 100.6c-30.2 0-54.8 24.6-54.8 54.8s24.6 54.8 54.8 54.8 54.8-24.6 54.8-54.8c0-30.2-24.6-54.8-54.8-54.8zM307.2 100.6c-30.2 0-54.8 24.6-54.8 54.8s24.6 54.8 54.8 54.8 54.8-24.6 54.8-54.8c0-30.2-24.4-54.8-54.8-54.8zM950.8 118.8h-365.6v73.2h365.6v-73.2zM1013.2 546.8c-7.4 7.2-15.8 10.8-25.8 10.8h-950.8c-10 0-18.4-3.6-25.6-10.8s-11-15.8-11-25.8v-146.2c0-10 3.6-18.4 11-25.8 7.2-7.2 15.8-10.8 25.6-10.8h950.8c10 0 18.4 3.6 25.8 10.8 7.2 7.2 10.8 15.8 10.8 25.8v146.2c0 10-3.6 18.6-10.8 25.8zM126.2 393.2c-30.2 0-54.8 24.6-54.8 54.8s24.6 54.8 54.8 54.8 54.8-24.6 54.8-54.8-24.6-54.8-54.8-54.8zM307.2 393.2c-30.2 0-54.8 24.6-54.8 54.8s24.6 54.8 54.8 54.8 54.8-24.4 54.8-54.8-24.4-54.8-54.8-54.8zM950.8 411.4h-365.6v73.2h365.6v-73.2zM1013.2 839.4c-7.4 7.2-15.8 10.8-25.8 10.8h-950.8c-10 0-18.4-3.6-25.6-10.8s-11-15.8-11-25.8v-146.2c0-10 3.6-18.4 11-25.8 7.2-7.2 15.8-10.8 25.6-10.8h950.8c10 0 18.4 3.6 25.8 10.8 7.2 7.2 10.8 15.8 10.8 25.8v146.2c0 10-3.6 18.6-10.8 25.8zM126.2 685.6c-30.2 0-54.8 24.6-54.8 54.8s24.6 54.8 54.8 54.8 54.8-24.6 54.8-54.8-24.6-54.8-54.8-54.8zM307.2 685.6c-30.2 0-54.8 24.6-54.8 54.8s24.6 54.8 54.8 54.8 54.8-24.6 54.8-54.8-24.4-54.8-54.8-54.8zM950.8 704h-365.6v73.2h365.6v-73.2z" />
<glyph unicode="&#xe900;" glyph-name="phone-alpha" d="M660.303 6.621c-44.138 0-88.276 7.062-128.883 22.952-49.434 17.655-90.041 54.731-114.759 104.166l-199.503 391.945c-24.717 49.434-30.014 105.931-15.89 157.131 21.186 72.386 63.559 134.179 121.821 183.614 24.717 19.421 54.731 28.248 82.979 21.186 30.014-7.062 54.731-26.483 68.855-54.731l49.434-98.869c35.31-70.621 12.359-120.055-5.297-141.241l-40.607-52.966 60.028-125.352 42.372-75.917 67.090 1.766c0 0 1.766 0 1.766 0 45.903 0 88.276-26.483 109.462-67.090 8.828-19.421 19.421-37.076 28.248-56.497 10.593-19.421 21.186-38.841 30.014-58.262 14.124-26.483 14.124-56.497 1.766-84.745-12.359-26.483-35.31-45.903-63.559-52.966-30.014-10.593-63.559-14.124-95.338-14.124zM388.414 818.759c-7.062 0-12.359-1.766-19.421-7.062-47.669-38.841-81.214-90.041-98.869-148.303-10.593-33.545-7.062-70.621 10.593-104.166l197.738-393.71c17.655-33.545 44.138-58.262 75.917-70.621 58.262-21.186 123.586-22.952 183.614-7.062 10.593 3.531 15.89 10.593 17.655 14.124 3.531 7.062 3.531 15.89 0 22.952-10.593 19.421-19.421 38.841-30.014 58.262s-19.421 37.076-30.014 56.497c-8.828 17.655-26.483 28.248-45.903 28.248 0 0 0 0 0 0l-88.276-1.766c0 0 0 0 0 0-12.359 0-24.717 7.062-31.779 17.655l-52.966 95.338c0 0 0 1.766-1.766 1.766l-68.855 144.772c-5.297 12.359-3.531 26.483 3.531 37.076l52.966 70.621c5.297 7.062 19.421 24.717-1.766 67.090l-45.903 100.634c-5.297 10.593-12.359 15.89-21.186 17.655-1.766 0-3.531 0-5.297 0z" />
<glyph unicode="&#xe901;" glyph-name="phone-off-alpha" d="M289.545 384.441c7.062-12.359 19.421-19.421 31.779-19.421 5.297 0 10.593 1.766 15.89 3.531 17.655 8.828 24.717 30.014 15.89 47.669l-70.621 141.241c-17.655 33.545-21.186 70.621-10.593 104.166 17.655 58.262 51.2 109.462 98.869 148.303 7.062 7.062 15.89 8.828 24.717 7.062s15.89-8.828 21.186-17.655l49.434-98.869c21.186-42.372 7.062-61.793 1.766-67.090l-52.966-70.621c-12.359-15.89-8.828-37.076 7.062-49.434s37.076-8.828 49.434 7.062l52.966 70.621c17.655 22.952 40.607 70.621 5.297 141.241l-52.966 100.634c-14.124 28.248-40.607 49.434-68.855 54.731s-60.028-1.766-82.979-21.186c-58.262-47.669-100.634-111.228-121.821-183.614-15.89-51.2-10.593-107.697 15.89-157.131l70.621-141.241zM819.2 156.69c-10.593 19.421-19.421 38.841-30.014 58.262-8.828 19.421-19.421 38.841-28.248 58.262-21.186 40.607-63.559 68.855-109.462 68.855 0 0-1.766 0-1.766 0l-70.621-1.766c-19.421 0-35.31-17.655-35.31-37.076s15.89-33.545 35.31-33.545l70.621 1.766c0 0 0 0 0 0 19.421 0 37.076-12.359 45.903-30.014 8.828-19.421 19.421-38.841 30.014-58.262s19.421-38.841 30.014-58.262c3.531-7.062 3.531-15.89 0-22.952-1.766-3.531-7.062-12.359-17.655-14.124-61.793-15.89-127.117-14.124-183.614 7.062-31.779 12.359-60.028 37.076-75.917 70.621l-17.655 35.31c-8.828 17.655-30.014 24.717-47.669 15.89s-24.717-30.014-15.89-47.669l17.655-35.31c24.717-49.434 65.324-86.51 114.759-104.166 40.607-14.124 84.745-22.952 128.883-22.952 33.545 0 65.324 3.531 98.869 12.359 28.248 7.062 51.2 26.483 63.559 52.966 12.359 28.248 12.359 58.262-1.766 84.745zM820.966 702.234c-12.359 14.124-35.31 15.89-49.434 1.766l-566.731-520.828c-14.124-12.359-15.89-35.31-1.766-49.434 7.062-7.062 15.89-10.593 26.483-10.593 8.828 0 17.655 3.531 24.717 8.828l564.966 520.828c14.124 12.359 14.124 33.545 1.766 49.434z" />
<glyph unicode="&#xe902;" glyph-name="phone" d="M414.897 552.166l77.683 75.917c21.186 28.248 24.717 67.090 1.766 112.993l-54.731 107.697c-21.186 42.372-70.621 54.731-107.697 24.717-56.497-45.903-98.869-109.462-120.055-180.083-14.124-47.669-8.828-98.869 14.124-143.007l65.324-128.883 84.745-165.959 67.090-130.648c21.186-44.138 58.262-77.683 104.166-95.338 70.621-26.483 150.069-28.248 222.455-8.828 40.607 10.593 61.793 58.262 42.372 95.338-21.186 42.372-42.372 82.979-63.559 125.352-15.89 31.779-49.434 51.2-84.745 51.2l-116.524-1.766z" />
<glyph unicode="&#xe903;" glyph-name="chat-alpha" d="M111.228 26.041c-7.062 0-15.89 3.531-22.952 7.062-10.593 8.828-15.89 24.717-10.593 38.841l68.855 217.159c-49.434 61.793-74.152 132.414-74.152 208.331 0 204.8 197.738 372.524 439.614 372.524s439.614-167.724 439.614-372.524c0-204.8-197.738-372.524-439.614-372.524-58.262 0-114.759 8.828-167.724 28.248l-215.393-121.821c-5.297-3.531-12.359-5.297-17.655-5.297zM512 799.338c-203.034 0-368.993-135.945-368.993-301.903 0-63.559 24.717-125.352 70.621-176.552 8.828-8.828 10.593-22.952 7.062-33.545l-65.324-167.724 167.724 104.166c8.828 5.297 21.186 5.297 30.014 1.766 49.434-19.421 102.4-30.014 158.897-30.014 203.034 0 368.993 135.945 368.993 301.903s-165.959 301.903-368.993 301.903z" />
<glyph unicode="&#xe904;" glyph-name="chat-off-alpha" d="M224.221 398.566c0 0 0 0 0 0 12.359 7.062 17.655 21.186 14.124 33.545-5.297 17.655-8.828 37.076-8.828 56.497 0 141.241 141.241 256 314.262 256 45.903 0 90.041-8.828 128.883-22.952 10.593-3.531 21.186-1.766 30.014 5.297v0c17.655 14.124 12.359 42.372-8.828 49.434-45.903 17.655-97.103 28.248-150.069 28.248-204.8 0-374.29-143.007-374.29-316.028 0-26.483 3.531-51.2 10.593-74.152 5.297-17.655 28.248-24.717 44.138-15.89zM854.51 598.069v0c-10.593-8.828-15.89-22.952-10.593-35.31 8.828-22.952 14.124-47.669 14.124-74.152 0-141.241-141.241-256-314.262-256-47.669 0-93.572 8.828-134.179 24.717-7.062 3.531-17.655 3.531-24.717-1.766l-143.007-88.276 14.124 35.31-63.559-42.372c-3.531-1.766-5.297-5.297-7.062-8.828l-8.828-24.717c-5.297-12.359 0-24.717 8.828-33.545 5.297-3.531 14.124-5.297 19.421-5.297s10.593 1.766 14.124 5.297l183.614 104.166c44.138-15.89 93.572-24.717 143.007-24.717 204.8 0 374.29 143.007 374.29 316.028 0 33.545-5.297 65.324-17.655 95.338-10.593 19.421-31.779 26.483-47.669 14.124zM944.552 783.448c-12.359 14.124-35.31 15.89-49.434 3.531l-812.138-554.372c-14.124-12.359-15.89-35.31-3.531-49.434 7.062-8.828 15.89-12.359 26.483-12.359 8.828 0 15.89 3.531 22.952 8.828l812.138 554.372c14.124 12.359 15.89 35.31 3.531 49.434z" />
<glyph unicode="&#xe905;" glyph-name="chat" d="M513.766 859.366c-243.641 0-441.379-164.193-441.379-368.993 0-77.683 30.014-151.834 79.448-210.097 3.531-5.297 5.297-12.359 3.531-17.655l-63.559-201.269c-5.297-15.89 12.359-31.779 28.248-22.952l197.738 114.759c5.297 3.531 10.593 3.531 15.89 1.766 54.731-19.421 114.759-31.779 178.317-31.779 243.641 0 441.379 164.193 441.379 368.993s-195.972 367.228-439.614 367.228z" />
<glyph unicode="&#xe906;" glyph-name="favs-alpha" d="M935.724 557.462c-10.593 30.014-37.076 49.434-68.855 49.434h-203.034c-1.766 0-1.766 0-3.531 1.766l-7.062 21.186c0 0 0 0 0 0l-75.917 211.862c-10.593 28.248-37.076 47.669-68.855 47.669 0 0 0 0 0 0-31.779 0-58.262-19.421-68.855-47.669l-86.51-233.048c0-1.766-1.766-1.766-3.531-1.766h-192.441c-31.779 0-58.262-19.421-68.855-49.434s-1.766-61.793 21.186-81.214l146.538-121.821c1.766 0 1.766-1.766 1.766-3.531l-91.807-245.407c-10.593-30.014-1.766-63.559 22.952-82.979 14.124-10.593 30.014-15.89 45.903-15.89 14.124 0 28.248 3.531 40.607 12.359l229.517 155.366c1.766 0 1.766 0 3.531 0l222.455-153.6c26.483-19.421 60.028-17.655 86.51 1.766s35.31 52.966 24.717 82.979l-65.324 180.083c0 0 0 0 0 0l-21.186 56.497c0 1.766 0 0 1.766 0 0 0 0 0 0 0l157.131 130.648c22.952 19.421 31.779 54.731 21.186 84.745zM236.579 77.241c-1.766 0-1.766-1.766-3.531 0s-1.766 1.766-1.766 3.531l86.51 231.283 128.883-91.807-210.097-143.007zM775.062 79.007c-1.766-1.766-1.766 0-3.531 0l-222.455 153.6-273.655 197.738-120.055 100.634c0 0-1.766 1.766-1.766 3.531s1.766 1.766 3.531 1.766h192.441c30.014 0 58.262 19.421 68.855 47.669l86.51 233.048c0 1.766 0 1.766 3.531 1.766 1.766 0 1.766-1.766 3.531-1.766l84.745-233.048c0 0 0 0 0 0l93.572-263.062c0 0 0 0 0 0l86.51-238.345c0-1.766 0-1.766-1.766-3.531zM868.634 529.214l-139.476-111.228-40.607 118.29h180.083c1.766 0 1.766 0 3.531-1.766-1.766-3.531-1.766-3.531-3.531-5.297z" />
<glyph unicode="&#xe907;" glyph-name="favs" d="M240.11 276.745l-68.855-213.628c-14.124-38.841 28.248-72.386 61.793-49.434l195.972 127.117-188.91 135.945zM741.517 322.648c-1.766 3.531-1.766 5.297-1.766 8.828l-97.103 270.124c-1.766 1.766-3.531 5.297-3.531 7.062l-91.807 252.469c-12.359 37.076-65.324 37.076-77.683 0l-95.338-254.234c-5.297-15.89-21.186-26.483-38.841-26.483h-210.097c-38.841 0-56.497-49.434-26.483-74.152l158.897-132.414c0 0 0 0 1.766-1.766l257.766-185.379c5.297-1.766 8.828-3.531 12.359-5.297l241.876-167.724c33.545-22.952 75.917 10.593 63.559 47.669l-93.572 261.297zM898.648 580.414h-160.662l67.090-185.379 120.055 111.228c30.014 24.717 12.359 74.152-26.483 74.152z" />
<glyph unicode="&#xe908;" glyph-name="video-alpha" d="M933.959 698.703c-12.359 5.297-26.483 3.531-37.076-3.531l-160.662-127.117v54.731c0 63.559-49.434 114.759-109.462 114.759h-446.676c-60.028 0-109.462-51.2-109.462-114.759v-347.807c0-63.559 49.434-114.759 109.462-114.759h444.91c60.028 0 109.462 51.2 109.462 114.759v45.903l162.428-118.29c5.297-5.297 14.124-7.062 21.186-7.062 5.297 0 10.593 1.766 15.89 3.531 12.359 5.297 19.421 17.655 19.421 31.779v436.083c0 12.359-7.062 24.717-19.421 31.779zM624.993 230.841h-444.91c-21.186 0-38.841 19.421-38.841 44.138v346.041c0 24.717 17.655 44.138 38.841 44.138h444.91c21.186 0 38.841-19.421 38.841-44.138v-229.517c0 0 0 0 0 0v-116.524c0-24.717-17.655-44.138-38.841-44.138zM882.759 299.697l-148.303 107.697v68.855l148.303 116.524v-293.076z" />
<glyph unicode="&#xe909;" glyph-name="video-off-alpha" d="M100.634 280.276c22.952-3.531 40.607 14.124 40.607 35.31v303.669c0 24.717 17.655 44.138 38.841 44.138h361.931c19.421 0 35.31 15.89 35.31 37.076s-15.89 35.31-35.31 35.31h-361.931c-60.028 0-109.462-51.2-109.462-114.759v-303.669c0-17.655 12.359-33.545 30.014-37.076zM933.959 696.938c-12.359 5.297-26.483 3.531-37.076-3.531l-160.662-127.117c-38.841-22.952-72.386-52.966-72.386-105.931v-187.145c0-24.717-17.655-44.138-38.841-44.138h-284.248c-17.655 0-33.545-12.359-37.076-30.014-3.531-22.952 14.124-40.607 35.31-40.607h286.014c60.028 0 109.462 51.2 109.462 114.759v45.903l162.428-118.29c5.297-5.297 14.124-7.062 21.186-7.062 5.297 0 10.593 1.766 15.89 3.531 12.359 5.297 19.421 17.655 19.421 31.779v437.848c0 10.593-7.062 22.952-19.421 30.014zM882.759 297.931l-148.303 107.697v68.855l148.303 116.524v-293.076zM808.607 765.793c-12.359 14.124-35.31 15.89-49.434 3.531l-676.193-589.683c-14.124-12.359-15.89-35.31-3.531-49.434 7.062-8.828 15.89-12.359 26.483-12.359 8.828 0 15.89 3.531 22.952 8.828l676.193 589.683c14.124 12.359 15.89 35.31 3.531 49.434z" />
<glyph unicode="&#xe90a;" glyph-name="interactions-alpha" d="M397.241 387.972c112.993 0 203.034 91.807 203.034 204.8v54.731c0 104.166-86.51 188.91-192.441 188.91h-31.779c-104.166 0-181.848-84.745-181.848-188.91v-54.731c0-112.993 90.041-204.8 203.034-204.8zM264.828 647.503c0 65.324 45.903 118.29 111.228 118.29h31.779c65.324 0 121.821-52.966 121.821-118.29v-54.731c0-74.152-58.262-134.179-132.414-134.179s-132.414 60.028-132.414 134.179v54.731zM489.048 336.772c0 0 1.766 0 0 0 0 0-1.766 0-1.766 0-1.766 0-1.766 0-3.531 0s-1.766 0-1.766 0c-1.766 0-1.766 0-3.531-1.766 0 0 0 0 0 0-54.731-24.717-116.524-24.717-169.49 0h-1.766c0 0 0 0 0 0-1.766 0-3.531 1.766-3.531 1.766s-1.766 0-1.766 0-1.766 0-3.531 0-1.766 0-3.531 0c0 0 0 0 0 0-132.414 0-224.221-84.745-224.221-201.269v-60.028c0-19.421 15.89-33.545 35.31-33.545h572.028c19.421 0 30.014 14.124 30.014 33.545v60.028c-1.766 116.524-91.807 201.269-218.924 201.269zM635.586 112.552h-494.345v22.952c0 75.917 58.262 128.883 143.007 130.648 33.545-14.124 70.621-21.186 105.931-21.186 37.076 0 70.621 7.062 104.166 21.186 84.745-1.766 141.241-54.731 141.241-130.648v-22.952zM898.648 790.51c-12.359 15.89-33.545 19.421-49.434 7.062s-19.421-33.545-7.062-49.434c49.434-65.324 52.966-155.366 12.359-240.11-8.828-17.655-1.766-38.841 15.89-47.669 5.297-1.766 10.593-3.531 15.89-3.531 12.359 0 24.717 7.062 31.779 19.421 52.966 109.462 45.903 227.752-19.421 314.262zM711.503 737.545c-15.89-12.359-19.421-33.545-7.062-49.434 24.717-33.545 28.248-100.634 5.297-144.772-8.828-17.655-1.766-38.841 15.89-47.669 5.297-1.766 10.593-3.531 15.89-3.531 12.359 0 24.717 7.062 31.779 19.421 33.545 67.090 28.248 164.193-12.359 217.159-10.593 17.655-33.545 21.186-49.434 8.828z" />
<glyph unicode="&#xe90b;" glyph-name="inbox-alpha" d="M953.379 365.021c0 5.297 0 10.593-1.766 14.124l-143.007 399.007c-5.297 14.124-17.655 21.186-33.545 21.186h-529.655c-14.124 0-28.248-8.828-33.545-22.952l-139.476-395.476c-1.766-5.297-1.766-10.593-1.766-15.89 0-1.766 0-1.766 0-3.531v-247.172c0-17.655 15.89-37.076 35.31-37.076h812.138c19.421 0 35.31 19.421 35.31 38.841v248.938c0-1.766 0-1.766 0 0zM270.124 730.483h480.221l120.055-335.448h-254.234c-19.421 0-33.545-14.124-35.31-31.779-1.766-35.31-33.545-65.324-68.855-65.324s-67.090 30.014-68.855 65.324c-1.766 17.655-17.655 31.779-37.076 31.779h-252.469l116.524 335.448zM882.759 147.862h-741.517v176.552h236.579c17.655-70.621 72.386-100.634 134.179-100.634s116.524 30.014 134.179 100.634h236.579v-176.552z" />
<glyph unicode="&#xe90c;" glyph-name="inbox" d="M953.379 365.021c0 5.297 0 10.593-1.766 14.124l-143.007 399.007c-5.297 14.124-17.655 21.186-33.545 21.186h-529.655c-14.124 0-28.248-8.828-33.545-22.952l-139.476-395.476c-1.766-5.297-1.766-10.593-1.766-15.89 0-1.766 0-1.766 0-3.531v-247.172c0-17.655 15.89-37.076 35.31-37.076h812.138c19.421 0 35.31 19.421 35.31 38.841v247.172c0 0 0 0 0 1.766zM270.124 730.483h480.221l120.055-335.448h-254.234c-19.421 0-33.545-14.124-35.31-31.779-1.766-35.31-33.545-65.324-68.855-65.324s-67.090 30.014-68.855 65.324c-1.766 17.655-17.655 31.779-37.076 31.779h-252.469l116.524 335.448z" />
<glyph unicode="&#xe90d;" glyph-name="bell" d="M886.29 172.579c0 0 0 0 0 0s0 0 0 0c0 84.745-28.248 164.193-79.448 231.283-47.669 61.793-70.621 144.772-63.559 236.579 0 10.593 0 21.186 0 31.779-7.062 116.524-105.931 211.862-222.455 217.159-63.559 1.766-123.586-21.186-169.49-65.324s-70.621-104.166-70.621-167.724c0-5.297 0-10.593 0-15.89 7.062-91.807-17.655-176.552-65.324-238.345-51.2-65.324-77.683-144.772-77.683-229.517 0 0 0 0 0 0s0 0 0 0c0-1.766 0-1.766 0-3.531 0 0 0-1.766 0-1.766 7.062-104.166 195.972-160.662 374.29-160.662s367.228 56.497 374.29 160.662c0 0 0 1.766 0 1.766s0 1.766 0 3.531zM513.766 94.897c-174.786 0-287.779 52.966-287.779 90.041s111.228 90.041 287.779 90.041c174.786 0 287.779-52.966 287.779-90.041-1.766-35.31-112.993-90.041-287.779-90.041zM436.083 204.359c0-42.372 33.545-75.917 75.917-75.917s75.917 33.545 75.917 75.917c0 35.31-151.834 38.841-151.834 0z" />
<glyph unicode="&#xe90e;" glyph-name="question" d="M512 889.379c-243.641 0-441.379-197.738-441.379-441.379s197.738-441.379 441.379-441.379c243.641 0 441.379 197.738 441.379 441.379s-197.738 441.379-441.379 441.379zM515.531 144.331c-67.090 0-67.090 104.166 0 104.166 70.621 0 70.621-104.166 0-104.166zM672.662 539.807c-7.062-51.2-37.076-95.338-81.214-120.055-17.655-8.828-45.903-28.248-45.903-58.262 0-19.421-15.89-33.545-35.31-33.545 0 0 0 0 0 0-19.421 0-35.31 15.89-33.545 35.31 0 47.669 30.014 90.041 81.214 118.29 24.717 14.124 42.372 38.841 45.903 67.090 0 3.531 0 7.062 0 12.359 0 49.434-40.607 90.041-90.041 90.041s-88.276-38.841-90.041-88.276c0-19.421-17.655-35.31-35.31-33.545-19.421 0-33.545 15.89-33.545 35.31 1.766 86.51 72.386 155.366 158.897 155.366 88.276 0 158.897-72.386 158.897-158.897 1.766-7.062 1.766-14.124 0-21.186z" />
<glyph unicode="&#xe90f;" glyph-name="envelope" d="M806.841 801.103h-594.979c-75.917 0-137.71-15.89-141.241-91.807 0-10.593 5.297-15.89 14.124-21.186l370.759-188.91c17.655-8.828 35.31-12.359 54.731-12.359 17.655 0 35.31 5.297 51.2 12.359l374.29 180.083c8.828 5.297 17.655 14.124 17.655 24.717v8.828c0 77.683-68.855 88.276-146.538 88.276zM104.166 562.759c-8.828 3.531-15.89 3.531-21.186 0-14.124-7.062-12.359-17.655-12.359-28.248v-323.090c0-63.559 51.2-114.759 114.759-114.759h665.6c56.497 0 102.4 45.903 102.4 102.4v342.51c0 8.828-5.297 21.186-15.89 22.952-12.359 1.766-19.421 0-28.248-3.531l-351.338-176.552c-31.779-15.89-68.855-15.89-98.869 0l-354.869 178.317z" />
<glyph unicode="&#xe910;" glyph-name="house" d="M942.786 509.793l-411.366 353.103c-12.359 10.593-30.014 10.593-40.607 0l-409.6-347.807c-14.124-10.593-14.124-31.779-3.531-44.138 10.593-14.124 31.779-14.124 44.138-3.531l68.855 58.262v-372.524c0-70.621 47.669-128.883 104.166-128.883h418.428c58.262 0 104.166 58.262 104.166 128.883v377.821l81.214-68.855c5.297-5.297 14.124-7.062 21.186-7.062 8.828 0 17.655 3.531 24.717 10.593 12.359 12.359 10.593 31.779-1.766 44.138zM596.745 241.434h-181.848c-17.655 0-31.779 14.124-31.779 31.779s14.124 31.779 31.779 31.779h181.848c17.655 0 31.779-14.124 31.779-31.779s-14.124-31.779-31.779-31.779zM596.745 398.566h-181.848c-17.655 0-31.779 14.124-31.779 31.779s14.124 31.779 31.779 31.779h181.848c17.655 0 31.779-14.124 31.779-31.779s-14.124-31.779-31.779-31.779z" />
<glyph unicode="&#xe911;" glyph-name="cog" d="M880.993 518.621h-93.572c-7.062 17.655-17.655 51.2-30.014 74.152l68.855 68.855c28.248 28.248 28.248 75.917 0 104.166s-74.152 28.248-104.166 0l-72.386-70.621c-21.186 10.593-49.434 19.421-67.090 26.483v95.338c0 38.841-30.014 72.386-70.621 72.386s-70.621-33.545-70.621-72.386v-93.572c-17.655-7.062-49.434-15.89-70.621-28.248l-68.855 68.855c-28.248 28.248-75.917 28.248-104.166 0s-28.248-74.152 0-104.166l68.855-68.855c-12.359-21.186-22.952-52.966-28.248-70.621h-95.338c-38.841-1.766-72.386-31.779-72.386-72.386s33.545-70.621 72.386-70.621h93.572c5.297-35.31 14.124-45.903 26.483-67.090l-65.324-65.324c-28.248-28.248-28.248-75.917 0-104.166 14.124-14.124 33.545-21.186 51.2-21.186s37.076 7.062 51.2 21.186l63.559 63.559c22.952-14.124 56.497-22.952 74.152-30.014v-93.572c0-40.607 30.014-72.386 70.621-72.386s70.621 33.545 70.621 72.386v93.572c17.655 7.062 49.434 15.89 70.621 28.248l65.324-65.324c14.124-14.124 33.545-21.186 51.2-21.186s37.076 7.062 51.2 21.186c28.248 28.248 28.248 74.152 0 104.166l-60.028 65.324c12.359 21.186 21.186 35.31 28.248 70.621h93.572c40.607 0 72.386 30.014 72.386 70.621s-31.779 70.621-70.621 70.621zM607.338 352.662c-3.531-3.531-5.297-7.062-8.828-10.593-22.952-19.421-54.731-31.779-88.276-31.779-75.917 0-137.71 61.793-137.71 137.71s61.793 137.71 137.71 137.71c75.917 0 137.71-61.793 137.71-137.71 0-33.545-12.359-63.559-31.779-88.276-1.766-1.766-5.297-3.531-8.828-7.062z" />
<glyph unicode="&#xe912;" glyph-name="quote-left" d="M70.621 336.772c0-3.531 0-7.062 0-10.593 0-116.524 95.338-211.862 211.862-211.862s211.862 95.338 211.862 211.862c0 116.524-95.338 211.862-211.862 211.862-24.717 0-49.434-5.297-72.386-12.359 19.421 56.497 52.966 116.524 107.697 164.193 21.186 19.421 22.952 52.966 3.531 74.152-10.593 10.593-24.717 17.655-38.841 17.655-12.359 0-24.717-5.297-35.31-14.124-178.317-162.428-176.552-418.428-176.552-429.021 0 0 0-1.766 0-1.766zM741.517 114.317c116.524 0 211.862 95.338 211.862 211.862s-95.338 211.862-211.862 211.862c-24.717 0-49.434-5.297-72.386-12.359 21.186 56.497 54.731 116.524 107.697 164.193 21.186 19.421 22.952 52.966 3.531 74.152-10.593 10.593-24.717 17.655-38.841 17.655-12.359 0-24.717-5.297-35.31-14.124-178.317-162.428-176.552-418.428-176.552-429.021 0 0 0-1.766 0-1.766 0-3.531 0-7.062 0-10.593 0-116.524 95.338-211.862 211.862-211.862z" />
<glyph unicode="&#xe913;" glyph-name="monitor" d="M833.324 871.724h-642.648c-65.324 0-120.055-51.2-120.055-116.524v-436.083c0-67.090 54.731-118.29 120.055-118.29h268.359v-88.276h-52.966c-24.717 0-45.903-19.421-45.903-44.138s19.421-44.138 45.903-44.138h211.862c24.717 0 45.903 19.421 45.903 44.138s-19.421 44.138-45.903 44.138h-52.966v88.276h268.359c67.090 0 120.055 51.2 120.055 118.29v436.083c0 65.324-54.731 116.524-120.055 116.524zM190.676 783.448h642.648c15.89 0 31.779-14.124 31.779-28.248v-377.821h-706.207v377.821c0 14.124 17.655 28.248 31.779 28.248z" />
<glyph unicode="&#xe914;" glyph-name="paperclip" d="M858.041 815.228c-98.869 98.869-261.297 98.869-361.931 0l-356.634-358.4c0 0-1.766-1.766-1.766-1.766s-1.766-1.766-1.766-1.766c-60.028-60.028-60.028-157.131 0-217.159 30.014-30.014 68.855-44.138 107.697-44.138s77.683 14.124 107.697 44.138l280.717 280.717c22.952 22.952 22.952 58.262 0 81.214s-58.262 22.952-81.214 0l-278.952-280.717c-15.89-15.89-40.607-15.89-56.497 0s-15.89 40.607 0 56.497c0 0 1.766 1.766 1.766 1.766s1.766 1.766 1.766 1.766l358.4 358.4c26.483 26.483 61.793 42.372 100.634 42.372 37.076 0 74.152-14.124 100.634-42.372s42.372-61.793 42.372-100.634c0-37.076-14.124-74.152-42.372-100.634l-430.786-430.786c-22.952-22.952-22.952-58.262 0-81.214 10.593-10.593 26.483-15.89 40.607-15.89s28.248 5.297 40.607 15.89l429.021 429.021c100.634 100.634 100.634 263.062 0 363.697z" />
<glyph unicode="&#xe915;" glyph-name="magnifying-glass" d="M890 186.6l-169.6 171.8c27.6 48.2 42 101.8 42 155.8 0 175.2-142.4 317.8-317.2 317.8s-317.2-142.6-317.2-317.8c0-175.2 142.4-317.8 317.2-317.8 55.8 0 111 15.4 160.2 44.8l168.8-171.2c3.8-3.8 9.2-6.2 14.6-6.2s10.8 2.2 14.6 6.2l86.6 87.6c8 8.2 8 21 0 29zM445.2 708.2c106.8 0 193.6-87 193.6-194s-86.8-194-193.6-194c-106.8 0-193.6 87-193.6 194s86.8 194 193.6 194z" />
<glyph unicode="&#xe916;" glyph-name="fax" d="M849.214 430.345h-28.248v229.517c0 1.766 0 5.297 0 7.062s0 1.766-1.766 3.531c0 1.766 0 1.766-1.766 3.531 0 1.766-1.766 1.766-1.766 3.531 0 0 0 1.766-1.766 1.766-1.766 1.766-3.531 3.531-5.297 5.297l-203.034 192.441c-1.766 1.766-3.531 3.531-5.297 5.297l-1.766 1.766c-1.766 0-1.766 1.766-3.531 1.766s-1.766 0-3.531 1.766c-1.766 0-1.766 0-3.531 1.766-1.766 0-5.297 0-7.062 0h-340.745c-19.421 0-35.31-15.89-35.31-35.31v-423.724h-28.248c-19.421 0-35.31-15.89-35.31-35.31v-353.103c0-19.421 15.89-35.31 35.31-35.31h670.897c19.421 0 35.31 15.89 35.31 35.31v353.103c1.766 19.421-14.124 35.31-33.545 35.31zM354.869 147.862c-38.841 0-70.621 31.779-70.621 70.621s31.779 70.621 70.621 70.621c38.841 0 70.621-31.779 70.621-70.621s-31.779-70.621-70.621-70.621zM750.345 430.345h-474.924v384.883h218.924v-208.331c0-19.421 15.89-35.31 35.31-35.31h220.69v-141.241zM750.345 642.207h-185.379v173.021l185.379-173.021z" />
<glyph unicode="&#xe917;" glyph-name="marker" d="M801.545 599.834c0 164.193-135.945 296.607-301.903 289.545-144.772-7.062-264.828-123.586-275.421-266.593-3.531-47.669 5.297-93.572 22.952-135.945v0l229.517-455.503c14.124-31.779 60.028-31.779 74.152 0l213.628 425.49c22.952 42.372 37.076 91.807 37.076 143.007zM512 499.2c-52.966 0-97.103 44.138-97.103 97.103s44.138 97.103 97.103 97.103c52.966 0 97.103-44.138 97.103-97.103s-44.138-97.103-97.103-97.103z" />
<glyph unicode="&#xe918;" glyph-name="record" d="M220.69 465.655c33.545 0 61.793 28.248 61.793 61.793v44.138c0 14.124 12.359 26.483 26.483 26.483s26.483-12.359 26.483-26.483v-44.138c0-33.545 28.248-61.793 61.793-61.793h17.655c33.545 0 61.793 28.248 61.793 61.793v185.379c0 14.124 12.359 26.483 26.483 26.483s26.483-12.359 26.483-26.483v-185.379c0-33.545 28.248-61.793 61.793-61.793h17.655c33.545 0 61.793 28.248 61.793 61.793v44.138c0 14.124 12.359 26.483 26.483 26.483s26.483-12.359 26.483-26.483v-44.138c0-33.545 28.248-61.793 61.793-61.793h167.724c-10.593 234.814-204.8 423.724-441.379 423.724s-430.786-188.91-441.379-423.724h150.069zM785.655 395.034c-33.545 0-61.793-28.248-61.793-61.793v-26.483c0-14.124-12.359-26.483-26.483-26.483s-26.483 12.359-26.483 26.483v26.483c0 33.545-28.248 61.793-61.793 61.793h-17.655c-33.545 0-61.793-28.248-61.793-61.793v-167.724c0-14.124-12.359-26.483-26.483-26.483s-26.483 12.359-26.483 26.483v167.724c0 33.545-28.248 61.793-61.793 61.793h-17.655c-33.545 0-61.793-28.248-61.793-61.793v-26.483c0-14.124-12.359-26.483-26.483-26.483s-26.483 12.359-26.483 26.483v26.483c0 33.545-28.248 61.793-61.793 61.793h-146.538c26.483-218.924 211.862-388.414 437.848-388.414s411.366 169.49 437.848 388.414h-164.193z" />
<glyph unicode="&#xe919;" glyph-name="mic" d="M513.766 188.469c-135.945 0-206.566 63.559-241.876 118.29-10.593 17.655-5.297 38.841 10.593 51.2 17.655 10.593 38.841 5.297 51.2-10.593 37.076-56.497 97.103-84.745 180.083-84.745 84.745 0 144.772 26.483 178.317 81.214 10.593 17.655 33.545 21.186 51.2 10.593s21.186-33.545 10.593-51.2c-35.31-52.966-104.166-114.759-240.11-114.759zM513.766 36.634c-19.421 0-37.076 15.89-37.076 37.076v151.834c0 19.421 15.89 37.076 37.076 37.076 19.421 0 37.076-15.89 37.076-37.076v-151.834c-1.766-21.186-17.655-37.076-37.076-37.076zM651.476 6.621h-277.186c-19.421 0-37.076 15.89-37.076 37.076s15.89 37.076 37.076 37.076h277.186c19.421 0 37.076-15.89 37.076-37.076s-17.655-37.076-37.076-37.076zM517.297 889.379h-44.138c-63.559 0-102.4-49.434-102.4-114.759v-79.448h118.29c15.89 0 26.483-10.593 26.483-26.483s-10.593-26.483-26.483-26.483h-118.29v-88.276h118.29c15.89 0 26.483-10.593 26.483-26.483s-10.593-26.483-26.483-26.483h-118.29v-60.028c0-63.559 56.497-116.524 120.055-116.524h44.138c63.559 0 100.634 51.2 100.634 116.524v335.448c0 63.559-54.731 112.993-118.29 112.993z" />
<glyph unicode="&#xe91a;" glyph-name="mic-off" d="M743.283 350.897c-15.89 10.593-37.076 5.297-47.669-10.593-35.31-54.731-97.103-82.979-183.614-82.979-61.793 0-112.993 15.89-150.069 47.669-10.593-21.186-26.483-38.841-47.669-51.2 40.607-35.31 104.166-65.324 197.738-65.324 137.71 0 206.566 61.793 241.876 114.759 10.593 15.89 5.297 38.841-10.593 47.669zM513.766 36.634c-19.421 0-37.076 15.89-37.076 35.31v153.6c0 19.421 15.89 35.31 37.076 35.31 19.421 0 37.076-15.89 37.076-35.31v-153.6c-1.766-19.421-17.655-35.31-37.076-35.31zM653.241 6.621h-280.717c-19.421 0-35.31 15.89-35.31 35.31s15.89 35.31 35.31 35.31h280.717c19.421 0 35.31-15.89 35.31-35.31s-15.89-35.31-35.31-35.31zM882.759 726.952c-12.359 14.124-33.545 15.89-47.669 3.531l-692.083-603.807c-14.124-12.359-15.89-33.545-3.531-47.669 7.062-7.062 15.89-12.359 24.717-12.359 7.062 0 15.89 3.531 22.952 8.828l289.545 250.703c5.297 0 14.124-1.766 19.421-1.766h42.372c63.559 0 112.993 51.2 112.993 116.524v40.607l225.986 197.738c15.89 12.359 17.655 33.545 5.297 47.669zM370.759 500.966v-60.028c0-5.297 0-5.297 0-8.828l77.683 70.621h-77.683zM522.593 889.379h-42.372c-74.152 0-109.462-52.966-109.462-116.524v-77.683h120.055c14.124 0 26.483-12.359 26.483-26.483s-12.359-26.483-26.483-26.483h-120.055v-88.276h123.586l10.593-5.297 130.648 121.821v102.4c0 63.559-49.434 116.524-112.993 116.524z" />
<glyph unicode="&#xe91b;" glyph-name="plus" d="M886.29 387.972h-748.579c-33.545 0-60.028 26.483-60.028 60.028s26.483 60.028 60.028 60.028h746.814c33.545 0 60.028-26.483 60.028-60.028s-26.483-60.028-58.262-60.028zM512 6.621c-33.545 0-60.028 26.483-60.028 60.028v762.703c0 33.545 26.483 60.028 60.028 60.028s60.028-26.483 60.028-60.028v-764.469c0-31.779-26.483-58.262-60.028-58.262z" />
<glyph unicode="&#xe91c;" glyph-name="quote-right" d="M953.379 559.228c0 3.531 0 7.062 0 10.593 0 116.524-95.338 211.862-211.862 211.862s-211.862-95.338-211.862-211.862c0-116.524 95.338-211.862 211.862-211.862 24.717 0 49.434 5.297 72.386 12.359-19.421-56.497-52.966-116.524-107.697-164.193-21.186-19.421-22.952-52.966-3.531-74.152 10.593-10.593 24.717-17.655 38.841-17.655 12.359 0 24.717 5.297 35.31 14.124 178.317 162.428 176.552 418.428 176.552 429.021 0 0 0 1.766 0 1.766zM282.483 781.683c-116.524 0-211.862-95.338-211.862-211.862s95.338-211.862 211.862-211.862c24.717 0 49.434 5.297 72.386 12.359-21.186-56.497-54.731-116.524-107.697-164.193-21.186-19.421-22.952-52.966-3.531-74.152 10.593-10.593 24.717-17.655 38.841-17.655 12.359 0 24.717 5.297 35.31 14.124 178.317 162.428 176.552 418.428 176.552 429.021 0 0 0 1.766 0 1.766 0 3.531 0 7.062 0 10.593 0 116.524-95.338 211.862-211.862 211.862z" />
<glyph unicode="&#xe91d;" glyph-name="favs-full" d="M896.883 589.241h-248.938l-5.297 12.359c-1.766 1.766-1.766 5.297-3.531 8.828l-91.807 252.469c-12.359 37.076-65.324 37.076-77.683 0l-95.338-250.703c-5.297-15.89-21.186-22.952-38.841-22.952h-208.331c-38.841 0-56.497-52.966-28.248-77.683l158.897-134.179c0 0 0-1.766 1.766-1.766l10.593-8.828-98.869-303.669c-14.124-38.841 28.248-72.386 61.793-49.434l277.186 180.083 1.766 1.766c5.297-1.766 14.124-8.828 17.655-12.359l241.876-167.724c33.545-22.952 75.917 10.593 63.559 47.669l-93.572 259.531c-1.766 3.531-1.766 5.297-1.766 8.828l-1.766 5.297 185.379 174.786c31.779 24.717 14.124 77.683-26.483 77.683z" />
<glyph unicode="&#xe91e;" glyph-name="share" d="M926.897 515.090c-1.766 1.766-1.766 1.766-3.531 3.531l-241.876 238.345c-33.545 31.779-84.745 31.779-118.29 0-31.779-33.545-31.779-84.745 0-118.29l107.697-105.931h-517.297c-45.903 0-82.979-37.076-82.979-82.979 0-33.545 21.186-63.559 49.434-75.917 10.593-5.297 21.186-7.062 33.545-7.062h520.828l-107.697-109.462c-31.779-33.545-31.779-84.745 0-118.29 7.062-7.062 15.89-12.359 24.717-17.655 30.014-14.124 68.855-7.062 93.572 17.655l238.345 241.876c1.766 1.766 1.766 1.766 3.531 3.531 15.89 17.655 26.483 38.841 26.483 63.559 0 26.483-10.593 49.434-26.483 67.090z" />
<glyph unicode="&#xe91f;" glyph-name="call-forward-alpha" d="M476.69 66.648c-37.076 0-75.917 7.062-109.462 19.421-42.372 15.89-77.683 47.669-98.869 90.041l-173.021 337.214c-21.186 42.372-26.483 91.807-12.359 135.945 19.421 61.793 54.731 116.524 104.166 157.131 21.186 17.655 47.669 24.717 72.386 19.421s47.669-22.952 60.028-47.669l42.372-84.745c30.014-60.028 10.593-102.4-3.531-121.821l-35.31-45.903 51.2-107.697 37.076-65.324h56.497c0 0 1.766 0 1.766 0 38.841 0 75.917-22.952 93.572-58.262 8.828-15.89 15.89-31.779 24.717-47.669 8.828-17.655 17.655-33.545 26.483-51.2 10.593-22.952 12.359-49.434 1.766-72.386s-30.014-40.607-54.731-45.903c-28.248-7.062-56.497-10.593-84.745-10.593zM241.876 765.793c-5.297 0-10.593-1.766-15.89-7.062-40.607-33.545-70.621-77.683-84.745-128.883-8.828-28.248-5.297-61.793 8.828-90.041l171.255-337.214c14.124-28.248 37.076-49.434 65.324-60.028 49.434-17.655 105.931-21.186 158.897-7.062 8.828 1.766 12.359 8.828 14.124 12.359 3.531 7.062 3.531 14.124 0 19.421-8.828 17.655-17.655 33.545-26.483 49.434s-17.655 31.779-24.717 49.434c-7.062 14.124-22.952 24.717-38.841 24.717 0 0 0 0 0 0l-75.917-1.766c0 0 0 0 0 0-10.593 0-21.186 5.297-26.483 15.89l-45.903 82.979c0 0 0 1.766 0 1.766l-60.028 125.352c-5.297 10.593-3.531 22.952 3.531 31.779l45.903 60.028c3.531 5.297 15.89 21.186-1.766 58.262l-44.138 84.745c-3.531 8.828-10.593 14.124-17.655 15.89-1.766 0-3.531 0-5.297 0zM944.552 538.041l-150.069 148.303c-14.124 14.124-37.076 14.124-49.434 0-7.062-7.062-10.593-15.89-10.593-24.717s3.531-17.655 10.593-24.717l88.276-88.276h-393.71c-19.421 0-35.31-15.89-35.31-35.31s15.89-35.31 35.31-35.31h393.71l-88.276-88.276c-14.124-14.124-14.124-35.31 0-49.434 7.062-7.062 15.89-10.593 24.717-10.593s17.655 3.531 24.717 10.593l148.303 148.303c14.124 12.359 14.124 35.31 1.766 49.434z" />
<glyph unicode="&#xe920;" glyph-name="layers" d="M91.807 511.559l404.303-181.848c5.297-1.766 8.828-3.531 14.124-3.531 0 0 1.766 0 1.766 0s1.766 0 1.766 0c5.297 0 10.593 1.766 15.89 3.531l404.303 195.972c12.359 5.297 19.421 17.655 19.421 31.779s-8.828 24.717-21.186 31.779l-404.303 181.848c-5.297 1.766-10.593 3.531-15.89 1.766-5.297 0-10.593 0-15.89-3.531l-406.069-194.207c-12.359-5.297-19.421-17.655-19.421-31.779s8.828-24.717 21.186-31.779zM512 398.566l-323.090 146.538 323.090 157.131 323.090-146.538-323.090-157.131zM932.193 370.317l-220.69 107.697c-15.89 8.828-38.841 0-45.903-15.89-8.828-17.655-1.766-37.076 15.89-45.903l153.6-75.917-323.090-146.538-324.855 146.538 132.414 63.559c17.655 8.828 24.717 28.248 15.89 45.903-8.828 15.89-30.014 24.717-45.903 15.89l-199.503-95.338c-12.359-5.297-19.421-17.655-19.421-31.779s8.828-26.483 21.186-31.779l404.303-181.848c5.297-1.766 8.828-3.531 14.124-3.531 0 0 1.766 0 1.766 0s1.766 0 1.766 0c5.297 0 8.828 1.766 14.124 3.531l404.303 181.848c12.359 5.297 19.421 17.655 21.186 31.779-1.766 14.124-8.828 26.483-21.186 31.779z" />
<glyph unicode="&#xe921;" glyph-name="history" d="M579.090 891.145c-211.862 0-388.414-148.303-432.552-346.041l-75.917 104.166c-12.359 15.89-35.31 19.421-51.2 7.062s-19.421-35.31-7.062-51.2l127.117-174.786c5.297-12.359 17.655-21.186 33.545-21.186 3.531 0 7.062 0 8.828 1.766 0 0 1.766 0 1.766 0s1.766 0 1.766 1.766c1.766 0 1.766 1.766 3.531 1.766 1.766 1.766 3.531 1.766 5.297 3.531v0c0 0 0 0 0 0s0 0 0 0l174.786 123.586c15.89 12.359 19.421 33.545 8.828 51.2-12.359 15.89-33.545 19.421-51.2 8.828l-109.462-79.448c33.545 169.49 181.848 296.607 361.931 296.607 204.8 0 370.759-165.959 370.759-370.759s-165.959-370.759-370.759-370.759c-137.71 0-263.062 75.917-328.386 197.738-8.828 17.655-31.779 24.717-49.434 15.89s-24.717-31.779-15.89-49.434c77.683-146.538 227.752-236.579 391.945-236.579 245.407 0 443.145 199.503 443.145 443.145s-195.972 443.145-441.379 443.145zM564.966 721.655c-19.421 0-37.076-15.89-37.076-37.076v-264.828c0-19.421 15.89-37.076 37.076-37.076h234.814c19.421 0 37.076 15.89 37.076 37.076 0 19.421-15.89 37.076-37.076 37.076h-199.503v227.752c0 19.421-15.89 37.076-35.31 37.076z" />
<glyph unicode="&#xe922;" glyph-name="wrap-up-code" d="M333.683 82.538c-3.531 5.297-10.593 8.828-17.655 8.828-22.952 0-79.448 0-107.697 0-10.593 0-17.655 8.828-17.655 17.655v594.979c0 10.593 8.828 17.655 17.655 17.655h105.931v-56.497c0-17.655 14.124-31.779 31.779-31.779h294.841c17.655 0 31.779 14.124 31.779 31.779v56.497h105.931c10.593 0 17.655-8.828 17.655-17.655v-98.869c0-7.062 3.531-14.124 10.593-17.655 14.124-7.062 26.483-15.89 40.607-26.483 8.828-7.062 21.186 0 21.186 10.593v132.414c0 49.434-40.607 90.041-90.041 90.041h-176.552c-7.062 52.966-52.966 93.572-107.697 93.572s-100.634-40.607-105.931-93.572h-176.552c-49.434 0-90.041-40.607-90.041-90.041v-593.214c0-49.434 40.607-90.041 90.041-90.041s109.462 0 144.772 0c12.359 0 17.655 14.124 10.593 22.952-14.124 12.359-22.952 24.717-33.545 38.841zM494.345 815.228c19.421 0 37.076-15.89 37.076-37.076s-15.89-37.076-37.076-37.076c-19.421 0-37.076 15.89-37.076 37.076s17.655 37.076 37.076 37.076zM633.821 545.103c-148.303 0-270.124-120.055-270.124-270.124 0-148.303 120.055-270.124 270.124-270.124 148.303 0 270.124 120.055 270.124 270.124s-121.821 270.124-270.124 270.124zM806.841 342.069l-197.738-197.738c-8.828-8.828-19.421-12.359-31.779-12.359s-22.952 3.531-31.779 12.359l-84.745 84.745c-17.655 17.655-17.655 45.903 0 63.559s45.903 17.655 63.559 0l52.966-52.966 165.959 165.959c17.655 17.655 45.903 17.655 63.559 0s17.655-45.903 0-63.559z" />
<glyph unicode="&#xe923;" glyph-name="organization" d="M803.31 359.724c-15.89 0-31.779-1.766-45.903-7.062l-141.241 227.752c26.483 26.483 42.372 63.559 42.372 102.4 0 81.214-67.090 148.303-148.303 148.303s-148.303-67.090-148.303-148.303c0-40.607 15.89-75.917 42.372-102.4l-141.241-227.752c-14.124 5.297-30.014 7.062-45.903 7.062-81.214 0-148.303-67.090-148.303-148.303s67.090-148.303 148.303-148.303c58.262 0 109.462 35.31 132.414 84.745h321.324c22.952-49.434 74.152-84.745 132.414-84.745 81.214 0 148.303 67.090 148.303 148.303s-67.090 148.303-148.303 148.303zM326.621 315.586l141.241 227.752c14.124-5.297 30.014-7.062 45.903-7.062s31.779 1.766 45.903 7.062l141.241-227.752c-24.717-24.717-40.607-58.262-42.372-95.338h-291.31c-1.766 37.076-15.89 70.621-40.607 95.338zM512 760.497c42.372 0 77.683-35.31 77.683-77.683s-35.31-75.917-77.683-75.917c-42.372 0-77.683 35.31-77.683 77.683s35.31 75.917 77.683 75.917zM220.69 135.503c-42.372 0-77.683 35.31-77.683 77.683s35.31 77.683 77.683 77.683 77.683-35.31 77.683-77.683-35.31-77.683-77.683-77.683zM803.31 135.503c-42.372 0-77.683 35.31-77.683 77.683s35.31 77.683 77.683 77.683 77.683-35.31 77.683-77.683-35.31-77.683-77.683-77.683z" />
<glyph unicode="&#xe924;" glyph-name="interactions" horiz-adv-x="1138" d="M455.673 397.508c111.505 0 200.325 90.598 200.325 202.090v53.972c0 102.794-85.372 186.41-189.895 186.41h-31.324c-102.794 0-179.452-83.616-179.452-186.41v-54.011c0-111.505 88.808-202.090 200.325-202.090v0zM546.222 346.947h-6.907c-1.741 0-1.741 0-3.485-1.741v0c-54.011-24.391-114.977-24.391-167.252 0h-1.754c-1.741 0-3.485 1.741-3.485 1.741h-8.711c-130.67 0-221.256-83.654-221.256-198.61v-59.213c0-19.165 15.681-33.098 34.846-33.098h564.522c19.165 0 29.607 13.939 29.607 33.098v59.213c-1.78 114.966-90.622 198.61-216.103 198.61v0zM950.467 794.7c-12.196 15.681-33.098 19.165-48.777 6.97s-19.165-33.098-6.97-48.777c48.777-64.456 52.305-153.32 12.196-236.936-2.37-4.581-3.748-10.005-3.748-15.753 0-13.646 7.821-25.454 19.231-31.199 5.428-1.837 10.656-3.574 15.882-3.574 12.196 0 24.391 6.97 31.361 19.165 52.218 108.014 45.311 224.74-19.178 310.113v0zM765.786 742.432c-15.681-12.196-19.165-33.098-6.97-48.777 24.391-33.102 27.876-99.296 5.226-142.853-2.37-4.581-3.748-10.005-3.748-15.753 0-13.646 7.821-25.454 19.231-31.199 5.428-1.837 10.656-3.574 15.882-3.574 12.196 0 24.391 6.97 31.361 19.165 33.098 66.207 27.876 162.018-12.196 214.29-10.454 17.419-33.098 20.907-48.777 8.711v0z" />
</font>
</defs>
</svg>
